<svg xmlns="http://www.w3.org/2000/svg" width="115" height="90" viewBox="0 0 115 90">
  <g id="Group_773" data-name="Group 773" transform="translate(-677 -305)">
    <g id="Group_771" data-name="Group 771">
      <g id="Polygon_22" data-name="Polygon 22" transform="translate(677 305)" fill="#ffc928">
        <path d="M 96.74443817138672 89.49999237060547 L 18.25555610656738 89.49999237060547 C 16.46971702575684 89.49999237060547 14.74615573883057 89.01828765869141 13.27123641967773 88.10697174072266 C 11.88004970550537 87.24739837646484 10.72248935699463 86.02224731445312 9.923703193664551 84.56401062011719 C 9.124902725219727 83.10575866699219 8.715703010559082 81.47068786621094 8.740329742431641 79.83555603027344 C 8.766449928283691 78.10199737548828 9.28846263885498 76.39023590087891 10.24994277954102 74.88531494140625 L 49.49436950683594 13.45923519134521 C 50.39896774291992 12.04334163665771 51.59384918212891 10.93672847747803 53.04583740234375 10.17011547088623 C 54.40410232543945 9.452981948852539 55.94432830810547 9.073928833007812 57.49999618530273 9.073928833007812 C 59.05564880371094 9.073928833007812 60.59587478637695 9.452981948852539 61.95414352416992 10.17011547088623 C 63.4061279296875 10.93672847747803 64.60101318359375 12.04334163665771 65.50560760498047 13.45923519134521 L 104.7500610351562 74.88531494140625 C 105.711540222168 76.39023590087891 106.2335433959961 78.10199737548828 106.2596664428711 79.83555603027344 C 106.2842864990234 81.47068786621094 105.8750915527344 83.10575866699219 105.076301574707 84.56401062011719 C 104.2775039672852 86.02224731445312 103.1199417114258 87.24739837646484 101.728759765625 88.10697174072266 C 100.2538375854492 89.01828765869141 98.5302734375 89.49999237060547 96.74443817138672 89.49999237060547 Z" stroke="none"/>
        <path d="M 57.49998092651367 9.573905944824219 C 56.02536773681641 9.573905944824219 54.56588363647461 9.932968139648438 53.27928161621094 10.61225128173828 C 51.9047966003418 11.33795166015625 50.77312469482422 12.38638305664062 49.91572570800781 13.72842407226562 L 10.67129516601562 75.15449523925781 C 8.873825073242188 77.96794128417969 8.758285522460938 81.39570617675781 10.36222839355469 84.32379150390625 C 11.96617126464844 87.25187683105469 14.91693878173828 88.99999237060547 18.25555419921875 88.99999237060547 L 96.74443817138672 88.99999237060547 C 100.0830535888672 88.99999237060547 103.0338287353516 87.25187683105469 104.6377716064453 84.32379150390625 C 106.2417144775391 81.39570617675781 106.1261672973633 77.96794128417969 104.3286972045898 75.15449523925781 L 65.08425903320312 13.72842407226562 C 64.22683715820312 12.38638305664062 63.09516906738281 11.33795166015625 61.72068023681641 10.61225128173828 C 60.43409729003906 9.932968139648438 58.9745979309082 9.573905944824219 57.49998092651367 9.573905944824219 M 57.4999885559082 8.57391357421875 C 60.73041152954102 8.57391357421875 63.96083068847656 10.11262512207031 65.92695617675781 13.19004058837891 L 105.1713943481445 74.61610412597656 C 109.4241256713867 81.27255249023438 104.6434097290039 89.99999237060547 96.74443817138672 89.99999237060547 L 18.25555419921875 89.99999237060547 C 10.3565673828125 89.99999237060547 5.57586669921875 81.27255249023438 9.828598022460938 74.61610412597656 L 49.07302856445312 13.19004058837891 C 51.03914642333984 10.11262512207031 54.26956939697266 8.57391357421875 57.4999885559082 8.57391357421875 Z" stroke="none" fill="#707070"/>
      </g>
    </g>
    <g id="Group_772" data-name="Group 772">
      <g id="Polygon_23" data-name="Polygon 23" transform="translate(677 305)" fill="none">
        <path d="M49.073,13.19a10,10,0,0,1,16.854,0l39.244,61.426A10,10,0,0,1,96.744,90H18.256A10,10,0,0,1,9.829,74.616Z" stroke="none"/>
        <path d="M 57.49999618530273 13.57392120361328 C 55.75937652587891 13.57392120361328 54.2236328125 14.41516876220703 53.28650665283203 15.88197326660156 L 14.04206848144531 77.30805969238281 C 12.60270690917969 79.56098937988281 13.4425048828125 81.62098693847656 13.87037658691406 82.402099609375 C 14.29824829101562 83.18321228027344 15.58206939697266 84.99999237060547 18.25556182861328 84.99999237060547 L 96.74443054199219 84.99999237060547 C 99.41792297363281 84.99999237060547 100.7017440795898 83.18321228027344 101.1296157836914 82.402099609375 C 101.557487487793 81.62098693847656 102.3972854614258 79.56098937988281 100.9579238891602 77.30805969238281 L 61.71347045898438 15.88197326660156 C 60.77635955810547 14.41516876220703 59.24059677124023 13.57392120361328 57.49999618530273 13.57392120361328 M 57.49999618530273 8.57391357421875 C 60.73041915893555 8.57391357421875 63.96084213256836 10.11261749267578 65.92695617675781 13.19002532958984 L 105.1713943481445 74.61611938476562 C 109.4241256713867 81.27255249023438 104.6434173583984 89.99999237060547 96.74443054199219 89.99999237060547 L 18.25556182861328 89.99999237060547 C 10.35657501220703 89.99999237060547 5.57586669921875 81.27255249023438 9.828598022460938 74.61611938476562 L 49.07303619384766 13.19002532958984 C 51.03915023803711 10.11261749267578 54.26957321166992 8.57391357421875 57.49999618530273 8.57391357421875 Z" stroke="none" fill="#707070"/>
      </g>
    </g>
    <g id="Rectangle_1235" data-name="Rectangle 1235" transform="translate(721 366)" fill="#707070" stroke="#707070" stroke-width="1">
      <rect width="26" height="29" rx="6" stroke="none"/>
      <rect x="0.5" y="0.5" width="25" height="28" rx="5.5" fill="none"/>
    </g>
    <g id="Ellipse_160" data-name="Ellipse 160" transform="translate(719 338)" fill="#707070" stroke="#707070" stroke-width="1">
      <circle cx="15.5" cy="15.5" r="15.5" stroke="none"/>
      <circle cx="15.5" cy="15.5" r="15" fill="none"/>
    </g>
  </g>
</svg>
