<svg id="Layer_1" data-name="Layer 1" xmlns="http://www.w3.org/2000/svg" viewBox="0 0 98.52 81.43"><defs><style>.cls-1{fill:#ffc928;}.cls-2{fill:#707070;}.cls-3,.cls-4{fill:none;}.cls-4{stroke:#707070;}</style></defs><g id="Group_773" data-name="Group 773"><g id="Group_771" data-name="Group 771"><g id="Polygon_22" data-name="Polygon 22"><path class="cls-1" d="M96.74,89.5H18.26a9.5,9.5,0,0,1-5-1.39,9.63,9.63,0,0,1-4.53-8.27,9.48,9.48,0,0,1,1.51-5L49.49,13.46a9.37,9.37,0,0,1,3.56-3.29,9.55,9.55,0,0,1,8.9,0,9.37,9.37,0,0,1,3.56,3.29l39.24,61.43a9.39,9.39,0,0,1,.33,9.67,9.6,9.6,0,0,1-3.35,3.55A9.5,9.5,0,0,1,96.74,89.5Z" transform="translate(-8.24 -8.57)"/><path class="cls-2" d="M57.5,9.57a9.08,9.08,0,0,0-4.22,1,8.83,8.83,0,0,0-3.36,3.12L10.67,75.15A9,9,0,0,0,18.26,89H96.74a9,9,0,0,0,7.59-13.85L65.08,13.73a8.83,8.83,0,0,0-3.36-3.12,9.08,9.08,0,0,0-4.22-1m0-1a9.93,9.93,0,0,1,8.43,4.62l39.24,61.43A10,10,0,0,1,96.74,90H18.26A10,10,0,0,1,9.83,74.62L49.07,13.19A9.93,9.93,0,0,1,57.5,8.57Z" transform="translate(-8.24 -8.57)"/></g></g><g id="Group_772" data-name="Group 772"><g id="Polygon_23" data-name="Polygon 23"><path class="cls-3" d="M49.07,13.19a10,10,0,0,1,16.86,0l39.24,61.43A10,10,0,0,1,96.74,90H18.26A10,10,0,0,1,9.83,74.62Z" transform="translate(-8.24 -8.57)"/><path class="cls-2" d="M57.5,13.57a4.92,4.92,0,0,0-4.21,2.31L14,77.31A5,5,0,0,0,18.26,85H96.74A5,5,0,0,0,101,77.31L61.71,15.88a4.92,4.92,0,0,0-4.21-2.31m0-5a9.93,9.93,0,0,1,8.43,4.62l39.24,61.43A10,10,0,0,1,96.74,90H18.26A10,10,0,0,1,9.83,74.62L49.07,13.19A9.93,9.93,0,0,1,57.5,8.57Z" transform="translate(-8.24 -8.57)"/></g></g><g id="Rectangle_1235" data-name="Rectangle 1235"><rect class="cls-2" x="35.76" y="52.43" width="26" height="29" rx="6"/><rect class="cls-4" x="36.26" y="52.93" width="25" height="28" rx="5.5"/></g><g id="Ellipse_160" data-name="Ellipse 160"><circle class="cls-2" cx="49.26" cy="39.93" r="15.5"/><circle class="cls-4" cx="49.26" cy="39.93" r="15"/></g></g></svg>