<svg xmlns="http://www.w3.org/2000/svg" width="129" height="97" viewBox="0 0 129 97">
  <g id="Group_789" data-name="Group 789" transform="translate(-675 -184.5)">
    <g id="Path_1657" data-name="Path 1657" transform="translate(675 184.5)" fill="#54e344">
      <path d="M 109.3211212158203 96.50000762939453 L 19.67887687683105 96.50000762939453 C 17.55695343017578 96.50000762939453 15.5186767578125 95.94058990478516 13.78439998626709 94.88224029541016 C 12.15161514282227 93.88582611083984 10.81820011138916 92.47642517089844 9.92830753326416 90.80637359619141 C 9.09569263458252 89.24382019042969 8.686446189880371 87.50851440429688 8.744815826416016 85.78802490234375 C 8.807600021362305 83.93697357177734 9.387861251831055 82.18220520019531 10.46946144104004 80.57247161865234 L 55.29056930541992 13.86573123931885 C 56.3289680480957 12.32028484344482 57.70170593261719 11.11185359954834 59.3706169128418 10.27400779724121 C 60.93449401855469 9.48891544342041 62.70819854736328 9.073930740356445 64.5 9.073930740356445 C 66.29180145263672 9.073930740356445 68.06550598144531 9.48891544342041 69.62937164306641 10.27400779724121 C 71.29829406738281 11.11185359954834 72.67101287841797 12.32028484344482 73.70941162109375 13.86573123931885 L 118.5305557250977 80.57247161865234 C 119.6121520996094 82.18220520019531 120.1924133300781 83.93697357177734 120.2552032470703 85.78802490234375 C 120.3135528564453 87.50851440429688 119.9043045043945 89.24382019042969 119.0716934204102 90.80637359619141 C 118.1818008422852 92.47642517089844 116.8483810424805 93.88582611083984 115.2155990600586 94.88224029541016 C 113.4813232421875 95.94058990478516 111.4430465698242 96.50000762939453 109.3211212158203 96.50000762939453 Z" stroke="none"/>
      <path d="M 64.49998474121094 9.57391357421875 C 62.78569030761719 9.57391357421875 61.08955383300781 9.970512390136719 59.59495544433594 10.72085571289062 C 58.00393676757812 11.51957702636719 56.69536590576172 12.67148590087891 55.70558166503906 14.14457702636719 L 10.88447570800781 80.851318359375 C 9.855857849121094 82.38220977783203 9.304092407226562 84.04885864257812 9.244522094726562 85.80496215820312 C 9.189140319824219 87.4378662109375 9.578170776367188 89.08602142333984 10.36956787109375 90.57122039794922 C 11.21744537353516 92.16242218017578 12.48831939697266 93.50554656982422 14.04484558105469 94.45542144775391 C 15.70066070556641 95.46588134765625 17.64888000488281 95.99999237060547 19.67887878417969 95.99999237060547 L 109.3211212158203 95.99999237060547 C 111.3511199951172 95.99999237060547 113.2993392944336 95.46588134765625 114.9551544189453 94.45542144775391 C 116.5116577148438 93.50554656982422 117.7825546264648 92.16242218017578 118.6304321289062 90.57122039794922 C 119.4218292236328 89.08602142333984 119.8108749389648 87.4378662109375 119.7554779052734 85.80496215820312 C 119.6959075927734 84.04885864257812 119.1441497802734 82.38220977783203 118.1155395507812 80.851318359375 L 73.29440307617188 14.14457702636719 C 72.30461120605469 12.67148590087891 70.99604797363281 11.51957702636719 69.405029296875 10.72085571289062 C 67.91043090820312 9.970512390136719 66.21429443359375 9.57391357421875 64.49998474121094 9.57391357421875 M 64.49999237060547 8.57391357421875 C 68.189453125 8.57391357421875 71.87892150878906 10.24490356445312 74.12443542480469 13.58686828613281 L 118.9455718994141 80.29360961914062 C 123.8025970458984 87.52227020263672 118.3425521850586 96.99999237060547 109.3211212158203 96.99999237060547 L 19.67887878417969 96.99999237060547 C 10.65743255615234 96.99999237060547 5.197402954101562 87.52227020263672 10.054443359375 80.29360961914062 L 54.87555694580078 13.58686828613281 C 57.12106323242188 10.24490356445312 60.81052398681641 8.57391357421875 64.49999237060547 8.57391357421875 Z" stroke="none" fill="#707070"/>
    </g>
    <g id="Polygon_23" data-name="Polygon 23" transform="translate(675 184.5)" fill="none">
      <path d="M56.173,12.523a10,10,0,0,1,16.654,0l45.842,68.94A10,10,0,0,1,110.342,97H18.658a10,10,0,0,1-8.327-15.537Z" stroke="none"/>
      <path d="M 64.5 13.06001281738281 C 62.79698181152344 13.06001281738281 61.27944183349609 13.87335205078125 60.33645629882812 15.29147338867188 L 14.49491882324219 84.2314453125 C 12.99909973144531 86.48097229003906 13.82637786865234 88.56871032714844 14.25150299072266 89.36190795898438 C 14.67659759521484 90.15509033203125 15.95702362060547 91.99999237060547 18.65846252441406 91.99999237060547 L 110.3415374755859 91.99999237060547 C 113.0429840087891 91.99999237060547 114.3234024047852 90.15509033203125 114.7484970092773 89.36190795898438 C 115.1736221313477 88.56871032714844 116.0009002685547 86.48097229003906 114.5050811767578 84.2314453125 L 68.66354370117188 15.29147338867188 C 67.72055816650391 13.87335205078125 66.20301818847656 13.06001281738281 64.5 13.06001281738281 M 64.5 8.060012817382812 C 67.67434692382812 8.060012817382812 70.84870147705078 9.547653198242188 72.82710266113281 12.52292633056641 L 118.6686401367188 81.46290588378906 C 123.0880966186523 88.10923004150391 118.3230972290039 96.99999237060547 110.3415374755859 96.99999237060547 L 18.65846252441406 96.99999237060547 C 10.67690277099609 96.99999237060547 5.911903381347656 88.10923004150391 10.33135986328125 81.46290588378906 L 56.17289733886719 12.52292633056641 C 58.15129852294922 9.547653198242188 61.32565307617188 8.060012817382812 64.5 8.060012817382812 Z" stroke="none" fill="#707070"/>
    </g>
    <g id="Rectangle_1235" data-name="Rectangle 1235" transform="translate(726 252.5)" fill="#707070" stroke="#707070" stroke-width="1">
      <rect width="26" height="29" rx="6" stroke="none"/>
      <rect x="0.5" y="0.5" width="25" height="28" rx="5.5" fill="none"/>
    </g>
    <g id="Ellipse_160" data-name="Ellipse 160" transform="translate(724 221.5)" fill="#707070" stroke="#707070" stroke-width="1">
      <circle cx="15.5" cy="15.5" r="15.5" stroke="none"/>
      <circle cx="15.5" cy="15.5" r="15" fill="none"/>
    </g>
  </g>
</svg>
