<svg xmlns="http://www.w3.org/2000/svg" xmlns:xlink="http://www.w3.org/1999/xlink" width="1920" height="1080" viewBox="0 0 1920 1080">
  <defs>
    <clipPath id="clip-Web_1920_5">
      <rect width="1920" height="1080"/>
    </clipPath>
  </defs>
  <g id="Web_1920_5" data-name="Web 1920 – 5" clip-path="url(#clip-Web_1920_5)">
    <rect width="1920" height="1080" fill="#ffed00"/>
    <g id="Rectangle_1304" data-name="Rectangle 1304" transform="translate(633 563)" fill="#424242" stroke="#707070" stroke-width="1">
      <rect width="655" height="121" rx="15" stroke="none"/>
      <rect x="0.5" y="0.5" width="654" height="120" rx="14.5" fill="none"/>
    </g>
    <text id="_Not_Found" data-name=" Not Found" transform="translate(733 661)" fill="#f5f5f5" stroke="#f5f5f5" stroke-width="1" font-size="91" font-family="SegoeUI, Segoe UI"><tspan x="0" y="0" xml:space="preserve"> Not Found</tspan></text>
    <text id="_404" data-name="404" transform="translate(793.5 511)" fill="#414141" stroke="#424242" stroke-width="7" font-size="206" font-family="SegoeUI, Segoe UI"><tspan x="0" y="0">404</tspan></text>
    <g id="Group_787" data-name="Group 787" transform="translate(2351.882 21.224) rotate(90)">
      <g id="Group_718" data-name="Group 718" transform="translate(-277.621 162)">
        <path id="Path_1648" data-name="Path 1648" d="M343.138,0h70.028L218.087,329.744H139.723Z" transform="translate(-139.723)" fill="#424242"/>
        <path id="Path_1649" data-name="Path 1649" d="M343.138,0h70.028L218.087,329.744H139.723Z" transform="translate(-3.001)" fill="#424242"/>
        <path id="Path_1650" data-name="Path 1650" d="M343.138,0h70.028L218.087,329.744H139.723Z" transform="translate(133.721)" fill="#424242"/>
        <path id="Path_1651" data-name="Path 1651" d="M343.138,0h70.028L218.087,329.744H139.723Z" transform="translate(407.163)" fill="#424242"/>
        <path id="Path_1652" data-name="Path 1652" d="M343.138,0h70.028L218.087,329.744H139.723Z" transform="translate(270.442)" fill="#424242"/>
        <path id="Path_1653" data-name="Path 1653" d="M343.138,0h70.028L218.087,329.744H139.723Z" transform="translate(543.885)" fill="#424242"/>
        <path id="Path_1654" data-name="Path 1654" d="M343.138,0h70.028L218.087,329.744H139.723Z" transform="translate(680.606)" fill="#424242"/>
      </g>
      <g id="Group_719" data-name="Group 719" transform="translate(674.25 162)">
        <path id="Path_1646" data-name="Path 1646" d="M343.138,0h70.028L218.087,329.744H139.723Z" transform="translate(-139.723)" fill="#424242"/>
        <path id="Path_1647" data-name="Path 1647" d="M343.138,0h70.028L218.087,329.744H139.723Z" transform="translate(-3.001)" fill="#424242"/>
        <path id="Path_1648-2" data-name="Path 1648" d="M343.138,0h70.028L218.087,329.744H139.723Z" transform="translate(133.721)" fill="#424242"/>
        <path id="Path_1649-2" data-name="Path 1649" d="M343.138,0h70.028L218.087,329.744H139.723Z" transform="translate(270.442)" fill="#424242"/>
        <path id="Path_1650-2" data-name="Path 1650" d="M343.138,0h70.028L218.087,329.744H139.723Z" transform="translate(407.164)" fill="#424242"/>
        <path id="Path_1652-2" data-name="Path 1652" d="M343.138,0h70.028L218.087,329.744H139.723Z" transform="translate(543.885)" fill="#424242"/>
      </g>
    </g>
    <g id="Group_788" data-name="Group 788" transform="translate(52.882 -256.397) rotate(90)">
      <g id="Group_718-2" data-name="Group 718" transform="translate(0 0)">
        <path id="Path_1648-3" data-name="Path 1648" d="M203.415,329.744h70.028L78.364,0H0Z" transform="translate(0 0)" fill="#424242"/>
        <path id="Path_1649-3" data-name="Path 1649" d="M203.415,329.744h70.028L78.364,0H0Z" transform="translate(136.722 0)" fill="#424242"/>
        <path id="Path_1650-3" data-name="Path 1650" d="M203.415,329.744h70.028L78.364,0H0Z" transform="translate(273.443 0)" fill="#424242"/>
        <path id="Path_1651-2" data-name="Path 1651" d="M203.415,329.744h70.028L78.364,0H0Z" transform="translate(546.886 0)" fill="#424242"/>
        <path id="Path_1652-3" data-name="Path 1652" d="M203.415,329.744h70.028L78.364,0H0Z" transform="translate(410.165 0)" fill="#424242"/>
        <path id="Path_1653-2" data-name="Path 1653" d="M203.415,329.744h70.028L78.364,0H0Z" transform="translate(683.608 0)" fill="#424242"/>
        <path id="Path_1654-2" data-name="Path 1654" d="M203.415,329.744h70.028L78.364,0H0Z" transform="translate(820.329 0)" fill="#424242"/>
      </g>
      <g id="Group_719-2" data-name="Group 719" transform="translate(951.871 0)">
        <path id="Path_1646-2" data-name="Path 1646" d="M203.415,329.744h70.028L78.364,0H0Z" transform="translate(0 0)" fill="#424242"/>
        <path id="Path_1647-2" data-name="Path 1647" d="M203.415,329.744h70.028L78.364,0H0Z" transform="translate(136.722 0)" fill="#424242"/>
        <path id="Path_1648-4" data-name="Path 1648" d="M203.415,329.744h70.028L78.364,0H0Z" transform="translate(273.443 0)" fill="#424242"/>
        <path id="Path_1649-4" data-name="Path 1649" d="M203.415,329.744h70.028L78.364,0H0Z" transform="translate(410.165 0)" fill="#424242"/>
        <path id="Path_1650-4" data-name="Path 1650" d="M203.415,329.744h70.028L78.364,0H0Z" transform="translate(546.886 0)" fill="#424242"/>
        <path id="Path_1652-4" data-name="Path 1652" d="M203.415,329.744h70.028L78.364,0H0Z" transform="translate(683.608 0)" fill="#424242"/>
      </g>
    </g>
  </g>
</svg>
