<svg xmlns="http://www.w3.org/2000/svg" xmlns:xlink="http://www.w3.org/1999/xlink" width="1920" height="1080" viewBox="0 0 1920 1080">
  <defs>
    <clipPath id="clip-path">
      <rect id="Rectangle_1385" data-name="Rectangle 1385" width="1920" height="1080" transform="translate(194 34)" fill="#fff" stroke="#707070" stroke-width="1"/>
    </clipPath>
    <clipPath id="clip-path-2">
      <rect id="Rectangle_1394" data-name="Rectangle 1394" width="1916" height="1080" transform="translate(0 0)" fill="none"/>
    </clipPath>
  </defs>
  <g id="Mask_Group_19" data-name="Mask Group 19" transform="translate(-194 -34)" clip-path="url(#clip-path)">
    <g id="OBJECTS" transform="translate(196 34)">
      <g id="Group_845" data-name="Group 845" transform="translate(0 0)" clip-path="url(#clip-path-2)">
        <rect id="Rectangle_1386" data-name="Rectangle 1386" width="1916" height="1080" transform="translate(0 0)" fill="#d1cd84"/>
        <path id="Path_1697" data-name="Path 1697" d="M1171.941,744.358c-56.809-.06-102.84-39.011-102.9-87.07V-79.164h35.746V657.4c.028,31.368,30.072,56.794,67.151,56.83Z" transform="translate(282.744 -5.487)" fill="#b5b16d"/>
        <path id="Path_1698" data-name="Path 1698" d="M1181.054,537.6v-30.24c37.093-.024,67.159-25.45,67.2-56.83V-32.078H1284V450.531c-.071,48.071-46.125,87.022-102.947,87.07Z" transform="translate(312.314 -2.223)" fill="#b5b16d"/>
        <rect id="Rectangle_1387" data-name="Rectangle 1387" width="69.321" height="1116.547" transform="translate(1436.736 -106.056)" fill="#b5b16d"/>
        <path id="Path_1699" data-name="Path 1699" d="M1245.1,653.26a29.957,29.957,0,0,1-9.243-21.946c9.445-.094,18.463,3.325,24.664,9.353a28.6,28.6,0,0,1,6.511,9.31q.894-14.494.562-29.052a38.151,38.151,0,0,1-21.958-8.51c-6.862-5.59-11.067-13.113-11.822-21.146a36.077,36.077,0,0,1,25.66,7.257,30.245,30.245,0,0,1,7.66,8.64q-.51-8.64-1.43-17.28c-11.9-11.986-13.507-29.034-4.009-42.465,15.224,10.041,19.556,27.958,10.213,42.25q1.685,15.53,1.992,31.082a35.41,35.41,0,0,1,6.638-9.526c5.9-6.341,14.71-10.266,24.23-10.8.9,8.942-2.368,17.828-9.115,24.754a33.556,33.556,0,0,1-21.728,9.461c-.153,9.807-.715,19.613-1.66,29.354a36.352,36.352,0,0,1,7.66-8.878,37.281,37.281,0,0,1,25.533-8.64c-.148,8.947-4.46,17.485-12,23.76a34.639,34.639,0,0,1-22.724,7.56q-1.992,14.58-5.107,29.009a38.536,38.536,0,0,1,8.707-8.165,38.151,38.151,0,0,1,26.324-6.48c-1.225,8.866-6.515,16.972-14.732,22.572a35.662,35.662,0,0,1-23.516,5.594q-3.728,14.342-8.553,28.469a40.06,40.06,0,0,1,9.651-7.409,38.818,38.818,0,0,1,26.962-4.32c-2.279,8.733-8.512,16.363-17.362,21.255a36.313,36.313,0,0,1-24.052,3.586,401.49,401.49,0,0,1-45.141,84.694l-5.49-2.722a393.4,393.4,0,0,0,49.252-96.466,33.983,33.983,0,0,1-17.873-13.63,28.447,28.447,0,0,1-4.008-23.263c9.272,1.509,17.3,6.369,21.984,13.306a26.386,26.386,0,0,1,4.187,10.217q4.238-14.04,7.379-28.3a35.536,35.536,0,0,1-19.533-12.01,28.887,28.887,0,0,1-6.587-22.572c9.391.715,17.943,4.865,23.413,11.362a27.231,27.231,0,0,1,5.387,9.806q2.553-14.321,4.009-28.771a37.137,37.137,0,0,1-20.936-10.3Z" transform="translate(316.9 37.94)" fill="#aba867"/>
        <path id="Path_1700" data-name="Path 1700" d="M-160.975,434.723c-3.623,44.364,34.724,83.263,86.964,88.214A114.3,114.3,0,0,0-37.525,520.6C-21.712,534.4-.711,543.1,21.864,545.207c31.926,3.042,63.587-7.344,84.743-27.8,38.131.637,70.557-23.406,74.81-55.469a53.413,53.413,0,0,0,0-14.839c21.613-3.6,39.071-17.06,45.309-34.933s.221-37.2-15.614-50.15a59,59,0,0,0,2.094-9.5c2.273-17-3.539-34.067-16.154-47.438s-31-21.949-51.1-23.842a88.449,88.449,0,0,0-13.073-.281c-11.605-16.713-32.711-27.062-55.621-27.274s-44.279,9.743-56.314,26.237c-15.824-13.777-36.82-22.467-59.389-24.581-44.756-4.273-87.209,17.767-102.973,53.46-24.978,13.461-41.4,35.772-44.656,60.674-3.184,23.8,5.969,47.6,25.1,65.254Z" transform="translate(-48.758 17.581)" fill="#c4c17c"/>
        <path id="Path_1701" data-name="Path 1701" d="M67.513,396.773c-2.89,35.505,14.674,70,47.156,92.621s75.878,30.566,116.508,21.34c25.352,22,60.409,34.038,96.711,33.217s70.55-14.427,94.477-37.537c28.476.5,55.8-9.512,74.844-27.428s27.925-41.96,24.324-65.862c28.675-4.776,51.838-22.634,60.114-46.346s.293-49.35-20.717-66.536c8.388-26.544,1.184-54.882-19.363-76.162s-51.931-32.909-84.351-31.255c-15.446-22.125-43.437-35.812-73.808-36.09s-58.706,12.892-74.715,34.729c-31.112-27.016-76.4-38.689-120.031-30.937S109.117,194.376,93.479,229.7c-32.351,17.513-53.913,46.214-58.919,78.429s7.053,64.655,32.953,88.647Z" transform="translate(9.358 10.863)" fill="#c4c17c"/>
        <path id="Path_1702" data-name="Path 1702" d="M323.889,198.928c-2.186,26.765,11.054,52.773,35.542,69.82s57.206,23.03,87.831,16.062c19.074,16.613,45.485,25.727,72.852,25.141s53.2-10.821,71.254-28.23c21.49.381,42.109-7.178,56.474-20.7s21.051-31.676,18.311-49.711c21.619-3.6,39.082-17.068,45.315-34.947s.2-37.207-15.646-50.157c5.747-18.142,1.854-37.5-10.661-53.017S652.753,47.545,630.688,45.46a91.47,91.47,0,0,0-13.073-.259c-11.586-16.728-32.69-27.095-55.606-27.316s-44.294,9.736-56.328,26.236C482.232,23.749,448.092,14.945,415.2,20.788s-59.967,25.518-71.751,52.148c-24.412,13.186-40.685,34.827-44.458,59.121s5.342,48.756,24.9,66.829Z" transform="translate(79.237 1.239)" fill="#c4c17c"/>
        <path id="Path_1703" data-name="Path 1703" d="M552.387,161.01c-2.864,35.483,14.7,69.953,47.156,92.557s75.82,30.559,116.431,21.362c25.352,22,60.409,34.038,96.711,33.218s70.55-14.428,94.477-37.538c50.645.942,93.782-30.943,99.475-73.526a69.534,69.534,0,0,0-.179-19.678c28.682-4.768,51.853-22.629,60.125-46.346s.274-49.359-20.754-66.535c8.431-26.558,1.243-54.927-19.316-76.227s-51.977-32.932-84.423-31.254C928.3-62.916,904.168-76.186,877.009-78.75c-33.332-3.176-65.837,10.211-83.441,34.366C772.584-62.662,744.736-74.193,714.8-77c-59.307-5.63-115.547,23.566-136.472,70.848-32.381,17.514-53.963,46.235-58.966,78.473s7.084,64.7,33.024,88.69Z" transform="translate(137.342 -5.49)" fill="#c4c17c"/>
        <rect id="Rectangle_1388" data-name="Rectangle 1388" width="93.832" height="955.757" transform="translate(132.046 -46.678)" fill="#aba867"/>
        <path id="Path_1704" data-name="Path 1704" d="M127.14,410.658c-61.033-.071-110.486-41.917-110.556-93.55V-43.612H67.649v360.72c.028,27.789,26.643,50.314,59.491,50.35Z" transform="translate(4.906 -3.023)" fill="#aba867"/>
        <rect id="Rectangle_1389" data-name="Rectangle 1389" width="93.832" height="1219.514" transform="translate(1782.422 -125.086)" fill="#aba867"/>
        <path id="Path_1705" data-name="Path 1705" d="M1432.833,601.092c-61.044-.059-110.511-41.908-110.582-93.55V-116.978h51.065V507.543c.042,27.793,26.664,50.314,59.516,50.35Z" transform="translate(349.589 -8.107)" fill="#aba867"/>
        <path id="Path_1706" data-name="Path 1706" d="M1337.24,266.64h664.69V412.483c0,155.288-148.8,281.177-332.358,281.189h0c-183.489,0-332.29-125.853-332.332-281.124Z" transform="translate(46.669 -282.278)" fill="none" stroke="#435e31" stroke-miterlimit="10" stroke-width="14.14"/>
        <path id="Path_1707" data-name="Path 1707" d="M373.481,545.235c-56.809-.048-102.852-38.989-102.922-87.048V-24.422H306.3V458.187c.042,31.359,30.082,56.772,67.151,56.808Z" transform="translate(71.953 -1.693)" fill="#b5b16d"/>
        <path id="Path_1708" data-name="Path 1708" d="M382.568,392.908v-30.24c37.083-.036,67.134-25.458,67.176-56.83V-176.77H485.49V305.839C485.433,353.906,439.387,392.861,382.568,392.908Z" transform="translate(101.522 -12.251)" fill="#b5b16d"/>
        <rect id="Rectangle_1390" data-name="Rectangle 1390" width="69.321" height="955.757" transform="translate(427.484 -44.345)" fill="#b5b16d"/>
        <path id="Path_1709" data-name="Path 1709" d="M915.989,503.825c56.8-.06,102.826-39,102.9-87.048V-65.832H983.14V416.777c-.042,31.359-30.082,56.772-67.151,56.808Z" transform="translate(242.339 -4.563)" fill="#b5b16d"/>
        <path id="Path_1710" data-name="Path 1710" d="M906.882,351.475v-30.24c-37.079-.024-67.134-25.44-67.176-56.808V-218.16H803.96V264.427C804.044,312.481,850.079,351.416,906.882,351.475Z" transform="translate(212.765 -15.12)" fill="#b5b16d"/>
        <rect id="Rectangle_1391" data-name="Rectangle 1391" width="69.321" height="955.757" transform="translate(1176.253 867.132) rotate(180)" fill="#b5b16d"/>
        <path id="Path_1711" data-name="Path 1711" d="M617.275,744.358c-56.819-.048-102.866-39-102.922-87.07V-79.164H550.1V657.4c.042,31.371,30.093,56.794,67.176,56.83Z" transform="translate(136.312 -5.487)" fill="#b5b16d"/>
        <path id="Path_1712" data-name="Path 1712" d="M626.382,537.6v-30.24c37.079-.036,67.123-25.462,67.151-56.83V-32.078h35.746V450.531c-.056,48.059-46.088,87.01-102.9,87.07Z" transform="translate(165.886 -2.223)" fill="#b5b16d"/>
        <rect id="Rectangle_1392" data-name="Rectangle 1392" width="69.321" height="1116.547" transform="translate(735.637 -106.056)" fill="#b5b16d"/>
        <path id="Path_1713" data-name="Path 1713" d="M960.281,842.764c-2.8-16.585-15.053-30.949-32.774-38.429a70.117,70.117,0,0,0-56,.953c-19.534-36.856-69.757-54.322-114.284-39.744-25.7-40.911-76-66.481-130.765-66.481s-105.061,25.57-130.765,66.481c-25.469-17.913-60.469-22.626-91.254-12.29-11.049-36.87-42.3-67.034-84.056-81.137s-88.971-10.438-127,9.857c-30.039-53.3-93.609-87.257-163.409-87.285-80.428.024-151.221,44.875-173.877,110.16-56.875,7.464-98.838,48.877-98.862,97.567a85.632,85.632,0,0,0,10.21,40.279Z" transform="translate(-63.559 41.216)" fill="#aba867"/>
        <path id="Path_1714" data-name="Path 1714" d="M757.5,844.021c3.026-17.876,16.23-33.357,35.329-41.423a75.61,75.61,0,0,1,60.367,1.009c21.08-39.709,75.2-58.526,123.195-42.833,27.776-44.031,81.97-71.531,140.965-71.531s113.19,27.5,140.965,71.531c27.459-19.29,65.171-24.367,98.352-13.241,11.889-39.754,45.57-72.285,90.587-87.492s95.92-11.252,136.908,10.64c34.842-61.849,111.2-99.085,191.924-93.6s149.071,52.564,171.788,118.328c38.762,5.065,72.512,25.137,91.265,54.279s20.363,64.017,4.354,94.307Z" transform="translate(200.5 39.959)" fill="#aba867"/>
        <path id="Path_1715" data-name="Path 1715" d="M1070.832,832.083c-.946-5.564-5.058-10.381-11-12.89a23.541,23.541,0,0,0-18.792.319c-6.543-12.354-23.375-18.211-38.3-13.327C994.1,792.468,977.229,783.9,958.858,783.9s-35.243,8.57-43.878,22.287c-8.546-6.024-20.3-7.607-30.639-4.126-3.691-12.383-14.173-22.52-28.191-27.261a54.633,54.633,0,0,0-42.636,3.307c-10.848-19.258-34.623-30.851-59.758-29.139s-46.412,16.373-53.479,36.85c-19.1,2.485-33.2,16.395-33.192,32.746a28.56,28.56,0,0,0,3.421,13.5Z" transform="translate(176.631 51.897)" fill="#4e6e39"/>
        <path id="Path_1716" data-name="Path 1716" d="M756.307,816.424l70.419-20.045c-.562-1.534-1.174-3.046-1.813-4.557l-36.384,2.786,32.4-11.232a128.916,128.916,0,0,0-27.294-35.186l-50.248,26.158,43.686-31.817c-1.532-1.253-3.115-2.462-4.7-3.65l-30.639,14.429,22.443-20.153a163.572,163.572,0,0,0-52.418-21.838L700.109,738.47l7.66-29.722c-2.17-.3-4.366-.583-6.587-.821l-18.843,38.34,5.106-39.247h-5.106a174.709,174.709,0,0,0-60.053,10.5c-2.247,15.12-4.264,29.009-4.264,30.391s-3.243-11.837-6.587-25.92c-1.66.756-3.319,1.512-4.928,2.311l3.243,46.807-13.864-41.04a142.192,142.192,0,0,0-40.188,34.97l7.966,29.743-14.477-20.628a116.839,116.839,0,0,0-8.017,14.753l29,27.518-33.422-16.33a109.081,109.081,0,0,0-5.694,34.884H833.747a109.808,109.808,0,0,0-4.085-29.613Z" transform="translate(140.722 49.001)" fill="#3a522b"/>
        <path id="Path_1717" data-name="Path 1717" d="M1178.007,738.575a35.236,35.236,0,0,1-20.273-11.9,33.14,33.14,0,0,1,23.72-4.083,33.837,33.837,0,0,1,10.494,3.91q-8.3-10.951-17.515-21.427a36.414,36.414,0,0,1-21.269,3.521,37.063,37.063,0,0,1-21.626-10.2,32.4,32.4,0,0,1,23.158-6.048,35.381,35.381,0,0,1,10.928,3.024c-3.8-4.039-7.66-8.014-11.694-11.923-16.177-3.483-27.934-15.3-29.235-29.376a37.053,37.053,0,0,1,24.154,9.245,27.462,27.462,0,0,1,9.4,16.978q10.8,10.584,20.656,21.773a27.3,27.3,0,0,1-1.072-9.871c.371-7.244,4.351-14.017,10.953-18.641a27.919,27.919,0,0,1,8.63,21.989c-.549,6.417-4.151,12.372-9.983,16.5q8.91,10.8,16.9,22.118a26.778,26.778,0,0,1,.153-9.871c1.243-7.166,6.01-13.553,13.124-17.582a26.919,26.919,0,0,1,5.923,22.594c-1.315,6.332-5.608,11.944-11.9,15.552q7.659,11.513,14.17,23.414a27.679,27.679,0,0,1,1.3-9.806c2.1-7.024,7.605-12.971,15.166-16.373a26.453,26.453,0,0,1,3.192,22.961c-2.058,6.192-7,11.414-13.685,14.472q6.153,12.074,11.337,24.494a27.667,27.667,0,0,1,2.553-9.655c2.9-6.809,9.083-12.257,17-14.99a26.316,26.316,0,0,1,.485,23.134c-2.8,5.975-8.319,10.746-15.32,13.241a333.537,333.537,0,0,1,19.4,81.648l-5.668.432a332.413,332.413,0,0,0-23.669-92.038,37.2,37.2,0,0,1-21.549-1.944,32.325,32.325,0,0,1-17.03-15.12,33.626,33.626,0,0,1,24.2,0,31.712,31.712,0,0,1,9.37,5.594q-5.592-12.118-12.1-23.89a37.165,37.165,0,0,1-21.652-.108,33.829,33.829,0,0,1-18.715-13.522,33.474,33.474,0,0,1,24.077-2.16,32.5,32.5,0,0,1,9.958,4.752q-6.919-11.578-14.834-22.723a36.875,36.875,0,0,1-21.626,1.9Z" transform="translate(297.436 45.332)" fill="#4e6e39"/>
        <path id="Path_1718" data-name="Path 1718" d="M572.3,820.013l45.831-12.96c-.358-.994-.766-1.987-1.174-2.981l-23.669,1.836,21.09-7.322a84.245,84.245,0,0,0-17.873-22.9L563.9,792.668l28.392-20.758-3.064-2.376-19.915,9.4,14.6-13.111a105.568,105.568,0,0,0-34.086-14.191L535.714,769.3l5.107-19.44c-1.43-.194-2.86-.389-4.289-.54l-12.281,24.97,3.345-25.553H524.25a113.6,113.6,0,0,0-39.065,6.8c-1.455,9.807-2.783,18.9-2.783,19.807s-2.119-7.711-4.289-16.913q-1.609.713-3.217,1.49l2.119,30.478L468,763.659a92.026,92.026,0,0,0-26.171,22.766l5.106,19.44-9.473-13.327a78.543,78.543,0,0,0-5.106,9.612l18.894,17.906L429.5,809.429a71.041,71.041,0,0,0-3.7,22.7H622.78a71.039,71.039,0,0,0-2.553-19.267Z" transform="translate(112.934 51.892)" fill="#4e6e39"/>
        <path id="Path_1719" data-name="Path 1719" d="M1013.692,820.013l45.959-12.96c-.383-.994-.766-1.987-1.2-2.981l-23.669,1.836,21.09-7.322A83.766,83.766,0,0,0,1038,775.69l-32.682,16.978,28.418-20.714c-1-.8-2.017-1.6-3.064-2.376l-19.966,9.4,14.6-13.111a105.663,105.663,0,0,0-34.086-14.234L977.129,769.3l5.106-19.44c-1.43-.194-2.86-.389-4.289-.54l-12.281,24.97,3.345-25.553h-3.345a113.748,113.748,0,0,0-39.09,6.8c-1.455,9.806-2.758,18.9-2.758,19.807s-2.119-7.711-4.315-16.913c-1.072.475-2.145.972-3.192,1.49L918.4,790.4l-9.013-26.741a91.9,91.9,0,0,0-26.145,22.766l5.107,19.44-9.473-13.327a78.544,78.544,0,0,0-5.107,9.612l18.869,17.906-21.754-10.627a71.765,71.765,0,0,0-3.7,22.7H1064.2a72.068,72.068,0,0,0-2.553-19.267Z" transform="translate(229.456 51.892)" fill="#3a522b"/>
        <path id="Path_1720" data-name="Path 1720" d="M1146.473,817.512l63.014-17.928c-.511-1.382-1.072-2.743-1.634-4.082l-32.63,2.484,28.979-10.022a115.145,115.145,0,0,0-24.409-31.493l-44.937,23.393,39.167-28.382c-1.379-1.123-2.783-2.16-4.213-3.262l-27.448,12.96,20.069-18.014a146,146,0,0,0-46.827-19.44L1096.224,748l6.945-26.762c-1.966-.281-3.932-.518-5.9-.734l-16.877,34.3,4.6-35.122h-4.6a156.258,156.258,0,0,0-53.619,9.374c-2.017,13.457-3.8,25.92-3.8,27.194s-2.911-10.584-5.924-23.242c-1.481.67-2.936,1.361-4.392,2.16l2.885,41.861-12.383-36.72a126.9,126.9,0,0,0-35.95,31.277l7.124,26.59-13-18.274a106.521,106.521,0,0,0-7.175,13.176L980.1,817.706l-29.9-14.623A98.11,98.11,0,0,0,945.1,834.3h270.646a97.255,97.255,0,0,0-3.652-26.654Z" transform="translate(250.024 49.879)" fill="#4e6e39"/>
        <path id="Path_1721" data-name="Path 1721" d="M42.421,564.428c13.308-2.808,24.942-9.638,32.707-19.2a53.6,53.6,0,0,0-38.3-6.588,54.549,54.549,0,0,0-16.9,6.242q13.4-17.647,28.239-34.56a58.754,58.754,0,0,0,34.29,5.659c13.619-1.7,26.037-7.546,34.929-16.438-10.156-7.732-23.813-11.3-37.354-9.763a56.847,56.847,0,0,0-17.515,4.968Q71.707,485,81.358,475.522c26-5.657,44.9-24.644,47.057-47.282-27.862.893-50.823,18.788-54.155,42.206q-17.439,17.042-33.192,35.078a43.689,43.689,0,0,0,1.685-15.9c-.594-11.69-7.037-22.614-17.72-30.046-9.979,9.87-14.977,22.661-13.915,35.618.9,10.343,6.7,19.939,16.086,26.611Q12.854,539.286-.065,557.494a43.378,43.378,0,0,0-.2-15.919c-2.014-11.555-9.7-21.854-21.166-28.361-8.715,10.615-12.153,23.7-9.575,36.439,2.142,10.207,9.066,19.25,19.2,25.078q-12.23,18.554-22.852,37.757a43.828,43.828,0,0,0-2.119-15.811c-3.376-11.322-12.251-20.909-24.435-26.4A42.555,42.555,0,0,0-66.322,607.3c3.327,9.971,11.273,18.383,22.035,23.328q-9.907,19.44-18.281,39.528a44.545,44.545,0,0,0-3.958-15.573C-71.213,643.57-81.195,634.749-94,630.308a42.432,42.432,0,0,0-.792,37.325c4.5,9.648,13.41,17.351,24.716,21.363A538.232,538.232,0,0,0-101.4,820.755l9.166.691a533.677,533.677,0,0,1,38.3-148.414,59.562,59.562,0,0,0,34.7-3.153c12.337-5.025,22.08-13.69,27.4-24.365a54.392,54.392,0,0,0-39.039,0,50.334,50.334,0,0,0-15.09,9.029q8.962-19.44,19.481-38.513a59.845,59.845,0,0,0,34.9-.194c12.892-3.9,23.647-11.661,30.231-21.816A54.225,54.225,0,0,0-.218,590.694a52.672,52.672,0,0,0-16.06,7.69Q-5.07,579.7,7.671,561.663a59.628,59.628,0,0,0,34.75,2.765Z" transform="translate(-26.242 29.68)" fill="#8fa647"/>
        <path id="Path_1722" data-name="Path 1722" d="M275.042,670.488c14.344-3.027,26.885-10.387,35.26-20.693a57.725,57.725,0,0,0-41.286-7.106,58.914,58.914,0,0,0-18.23,6.8q14.451-19.03,30.46-37.238a63.464,63.464,0,0,0,36.869,6.113c14.676-1.844,28.056-8.148,37.635-17.734-10.929-8.315-25.618-12.16-40.188-10.519a61.288,61.288,0,0,0-19.022,5.27q9.907-10.519,20.426-20.736c28.135-6.072,48.582-26.618,50.861-51.106-30.053,1.027-54.783,20.355-58.367,45.619q-18.766,18.4-35.873,37.843a47.148,47.148,0,0,0,1.813-17.15c-.624-12.593-7.538-24.37-19.022-32.4-10.74,10.626-16.13,24.391-15.013,38.34.979,11.146,7.229,21.487,17.337,28.685q-15.473,18.814-29.363,38.47a46.843,46.843,0,0,0-.255-17.28c-2.153-12.462-10.447-23.568-22.826-30.564-9.349,11.462-13.016,25.568-10.213,39.29,2.3,11.005,9.758,20.758,20.681,27.043q-13.149,20-24.639,40.694a47.238,47.238,0,0,0-2.272-17.042c-3.71-12.193-13.335-22.493-26.5-28.361a45.961,45.961,0,0,0-5.566,39.938c3.6,10.746,12.17,19.81,23.771,25.142q-10.7,21-19.711,42.6a47.436,47.436,0,0,0-4.289-16.783c-5.048-11.845-15.791-21.326-29.567-26.093a45.679,45.679,0,0,0-.817,40.241c4.828,10.4,14.425,18.705,26.6,23.025a580.221,580.221,0,0,0-33.729,141.955l9.856.756A575.069,575.069,0,0,1,171.048,787.5a64.326,64.326,0,0,0,37.431-3.412C221.8,778.71,232.335,769.4,238.1,757.9a58.774,58.774,0,0,0-42.1,0,54.92,54.92,0,0,0-16.264,9.72q9.7-21.082,20.937-41.429A64.6,64.6,0,0,0,238.3,726c13.927-4.21,25.546-12.595,32.656-23.566a58.342,58.342,0,0,0-41.873-3.607,56.849,56.849,0,0,0-17.337,8.294q12.1-20.11,25.813-39.55a64.2,64.2,0,0,0,37.482,2.916Z" transform="translate(32.209 36.285)" fill="#aba867"/>
        <path id="Path_1723" data-name="Path 1723" d="M480.41,647.252c9.9-5.5,17.088-13.873,20.2-23.544a46.619,46.619,0,0,0-33.448,3.866A40.889,40.889,0,0,0,455.49,636.8q4.979-17.626,11.388-34.992a51.086,51.086,0,0,0,29.9-3.65c10.548-4.659,18.72-12.417,22.979-21.816A46.854,46.854,0,0,0,486,577.376a43.435,43.435,0,0,0-12.766,8.23q4.187-10.174,8.885-20.218c19.384-10.882,28.429-31,22.494-50.026-22.415,7.472-35.09,27.617-29.9,47.52q-8.451,18.122-15.32,36.72a38.7,38.7,0,0,0-3.983-13.392c-4.4-9.39-13.313-16.755-24.511-20.261a36.83,36.83,0,0,0,.613,32.4c4.22,8.222,12.183,14.655,22.086,17.842q-5.821,17.69-10.213,35.662a39.688,39.688,0,0,0-5.541-12.96c-5.522-8.943-15.263-15.488-26.809-18.014a36.9,36.9,0,0,0,4.494,32.033c5.172,7.809,13.855,13.519,24.077,15.833q-3.677,18.057-5.924,36.309a41.8,41.8,0,0,0-7.047-12.4c-6.576-8.4-17.048-14.061-28.826-15.574-2.213,11,.757,22.286,8.273,31.45,6.078,7.329,15.394,12.274,25.839,13.716q-1.532,18.274-1.609,36.72a43.561,43.561,0,0,0-8.477-11.75c-7.553-7.848-18.69-12.614-30.639-13.111-.925,11.131,3.357,22.123,11.924,30.607,6.917,6.786,16.774,10.929,27.345,11.491a459.652,459.652,0,0,0,18.945,114.718l7.66-1.642A453.255,453.255,0,0,1,438.2,759.011a47.691,47.691,0,0,0,27.269-10.951c8.4-7.043,13.462-16.437,14.247-26.417-11.726-.939-23.35,2.51-31.814,9.439a37.686,37.686,0,0,0-9.268,10.994c.485-12.053,1.455-24.106,2.911-36.094a49.266,49.266,0,0,0,28.418-8.64c9.19-6.295,15.346-15.213,17.311-25.078a46.025,46.025,0,0,0-32.809,6.631,39.466,39.466,0,0,0-10.545,10.152q2.885-17.928,7.2-35.683A50.446,50.446,0,0,0,480.41,647.252Z" transform="translate(103.768 35.718)" fill="#aba867"/>
        <path id="Path_1779" data-name="Path 1779" d="M192.168.082c107.615,6.615,195.9,31.2,197.193,54.9s-84.9,37.561-192.515,30.946S.944,54.735-.347,31.029,84.553-6.533,192.168.082Z" transform="translate(62.241 888.137) rotate(-68.09)" fill="#3a522b"/>
        <path id="Path_1724" data-name="Path 1724" d="M239.16,511.949,71.488,864.59c49.406-41.278,93.475-96.941,124.522-162.475S241.024,570.679,239.16,511.949Z" transform="translate(19.4 35.482)" fill="#486635"/>
        <path id="Path_1780" data-name="Path 1780" d="M161.745.736c90.867,6.979,165.633,28.18,167,47.353s-71.2,29.059-162.062,22.08S1.045,41.989-.317,22.815,70.878-6.243,161.745.736Z" transform="translate(104.587 916.7) rotate(-58.89)" fill="#3a522b"/>
        <path id="Path_1725" data-name="Path 1725" d="M289.3,617.352,97.627,886.013c46.725-28.08,91.2-68.58,126.846-118.5S281.665,665.412,289.3,617.352Z" transform="translate(26.3 42.787)" fill="#486635"/>
        <path id="Path_1781" data-name="Path 1781" d="M189.632-.514c105.4,2.892,191.306,24.8,191.871,48.943S297.079,89.791,191.677,86.9.371,62.094-.194,37.955,84.229-3.406,189.632-.514Z" transform="translate(52.033 841.862) rotate(-81.19)" fill="#3a522b"/>
        <path id="Path_1726" data-name="Path 1726" d="M139.254,441.713l-68.938,375.6c37.073-49.68,64.955-112.32,77.772-182.11S156.821,498.586,139.254,441.713Z" transform="translate(19.091 30.614)" fill="#486635"/>
        <path id="Path_1788" data-name="Path 1788" d="M34.975-.048C55.024.075,71.789,70.616,72.42,157.508S57.311,314.741,37.262,314.618.448,243.954-.183,157.062,14.926-.171,34.975-.048Z" transform="translate(15.965 568.268) rotate(-2.291)" fill="#3a522b"/>
        <path id="Path_1727" data-name="Path 1727" d="M37.35,529.967,50.474,844.074c20.988-45.23,32.12-99.749,29.694-158.134S62.065,573.815,37.35,529.967Z" transform="translate(10.388 36.73)" fill="#486635"/>
        <path id="Path_1728" data-name="Path 1728" d="M1458.47,461.606c-12.2-5.281-21.7-14.154-26.707-24.948a54.221,54.221,0,0,1,39.039.907,50.277,50.277,0,0,1,14.809,9.374q-8.349-19.764-18.281-39.053a59.813,59.813,0,0,1-34.929-1.037c-12.8-4.27-23.321-12.341-29.592-22.7a54.031,54.031,0,0,1,38.988-2.354,52.357,52.357,0,0,1,15.856,8.122q-6.332-11.275-13.2-22.334c-23.894-10.483-37.242-32.677-33.192-55.188,26.942,6.216,44.523,28.1,41.44,51.581q12.409,19.958,22.979,40.543a43.76,43.76,0,0,1,2.553-15.811c3.67-11.281,12.844-20.707,25.226-25.92a42.84,42.84,0,0,1,4.034,37.3c-3.627,9.909-11.843,18.154-22.775,22.853q9.319,19.742,17,39.96a45.263,45.263,0,0,1,4.468-15.466c5.009-10.857,15.211-19.417,28.086-23.566a42.318,42.318,0,0,1-.46,37.325c-4.8,9.532-13.956,17.018-25.379,20.758q6.894,20.412,12.153,41.148a46.294,46.294,0,0,1,6.281-14.991c6.312-10.389,17.527-18.032,30.869-21.038a42.546,42.546,0,0,1-4.877,37.066c-5.922,9.071-15.919,15.737-27.728,18.49q4.493,20.866,7.251,41.99a47.81,47.81,0,0,1,8.145-14.429c7.517-9.791,19.571-16.443,33.193-18.317,2.692,12.72-.617,25.825-9.217,36.5-6.955,8.535-17.691,14.33-29.771,16.071a527.606,527.606,0,0,1-4.749,134.222l-9.09-1.058a519.976,519.976,0,0,0,2.553-151.891,57.168,57.168,0,0,1-32.963-9.72c-10.715-7.216-17.928-17.507-20.273-28.922a53.407,53.407,0,0,1,38.044,7.452,45.746,45.746,0,0,1,12.282,11.664q-3.524-20.736-8.682-41.234a58.5,58.5,0,0,1-33.958-6.869c-11.51-6.259-19.905-15.874-23.592-27.022a54.1,54.1,0,0,1,38.733,4.169,47.582,47.582,0,0,1,13.583,10.584q-5.949-20.347-13.507-40.306a59.409,59.409,0,0,1-34.648-3.91Z" transform="translate(370.855 21.651)" fill="#8fa647"/>
        <path id="Path_1782" data-name="Path 1782" d="M26.473-.389C49.446,1.374,75.385,93.089,84.41,204.462S82.128,404.693,59.155,402.931,10.243,309.454,1.218,198.08,3.5-2.151,26.473-.389Z" transform="translate(1618.294 563.217) rotate(-35.42)" fill="#3a522b"/>
        <path id="Path_1729" data-name="Path 1729" d="M1296.84,512.07l260.432,309.744c-59.44-30.37-117.45-75.794-165.962-133.38S1311.164,569.548,1296.84,512.07Z" transform="translate(342.88 35.49)" fill="#486635"/>
        <path id="Path_1783" data-name="Path 1783" d="M20.483-.314C38.959,1.226,60.331,79.032,68.219,173.47s-.7,169.748-19.172,168.208S9.2,262.333,1.311,167.894,2.007-1.853,20.483-.314Z" transform="translate(1600.915 683.045) rotate(-44.62)" fill="#3a522b"/>
        <path id="Path_1730" data-name="Path 1730" d="M1277.509,625.089l260.56,223.344c-53.21-18.1-107.646-48.643-156.056-90.159S1298.215,670.319,1277.509,625.089Z" transform="translate(337.777 43.323)" fill="#486635"/>
        <path id="Path_1784" data-name="Path 1784" d="M30.852-.35C54.54.961,79.185,89.34,85.9,197.051S78.851,391.016,55.163,389.705,6.83,300.015.117,192.3,7.164-1.661,30.852-.35Z" transform="translate(1687.932 466.823) rotate(-22.32)" fill="#3a522b"/>
        <path id="Path_1731" data-name="Path 1731" d="M1357.458,425.25l170.66,351.6c-49.763-41.04-94.19-96.358-125.9-161.7S1356.1,484,1357.458,425.25Z" transform="translate(358.859 29.473)" fill="#486635"/>
        <path id="Path_1785" data-name="Path 1785" d="M30.065-.2c19.916.6,38.559,71.961,41.641,159.385s-10.564,157.807-30.479,157.2S2.668,244.432-.415,157.008,10.149-.8,30.065-.2Z" transform="translate(1820.47 530.909) rotate(-11.48)" fill="#3a522b"/>
        <path id="Path_1732" data-name="Path 1732" d="M1465,490.618l74.044,308.016c-32.886-39.83-58.725-90.72-72.513-147.9S1453.1,538.159,1465,490.618Z" transform="translate(384.931 34.003)" fill="#486635"/>
        <path id="Path_1733" data-name="Path 1733" d="M639.094,834.808c-1.5-8.322-7.682-15.51-16.581-19.276a35.637,35.637,0,0,0-28.177.333c-7.375-13.8-23.635-22.664-41.542-22.637a52.281,52.281,0,0,0-16.312,2.591c-13.006-20.649-38.41-33.548-66.068-33.548s-53.06,12.9-66.066,33.549c-12.871-9.048-30.553-11.433-46.112-6.22-5.555-18.643-21.336-33.9-42.44-41.039s-44.971-5.28-64.184,4.989c-16.355-28.966-52.135-46.4-89.958-43.822S91.8,734.344,81.13,765.148c-18.164,2.377-33.978,11.786-42.766,25.443a43.1,43.1,0,0,0-2.044,44.2Z" transform="translate(8.762 49.172)" fill="#3a522b"/>
        <path id="Path_1734" data-name="Path 1734" d="M1043.653,834.82c1.423-8.373,7.609-15.624,16.554-19.4a35.446,35.446,0,0,1,28.281.46c7.369-13.778,23.588-22.633,41.465-22.637a52.1,52.1,0,0,1,16.29,2.592c13.014-20.646,38.421-33.542,66.078-33.542s53.064,12.9,66.078,33.542c12.833-9.007,30.444-11.391,45.958-6.221,5.562-18.644,21.348-33.9,42.455-41.039s44.977-5.28,64.195,4.988c16.3-29.064,52.133-46.579,90.035-44s69.974,24.709,80.573,55.6c18.175,2.361,34,11.767,42.8,25.429a43.061,43.061,0,0,1,2.014,44.209Z" transform="translate(276.041 49.16)" fill="#3a522b"/>
        <path id="Path_1735" data-name="Path 1735" d="M1574.52,814.735l82.087-23.371c-.664-1.793-1.379-3.564-2.119-5.314l-42.384,3.262,37.763-13.09a150.089,150.089,0,0,0-31.814-41.04l-58.546,30.478,50.887-37.066c-1.787-1.469-3.6-2.873-5.464-4.32l-35.746,16.8,26.145-23.479a190.111,190.111,0,0,0-61.023-25.423l-25.252,31.644,9.038-34.56c-2.553-.367-5.106-.691-7.66-.95L1488.475,733l6.052-45.749c-1.992,0-3.983-.108-5.975-.108a203.4,203.4,0,0,0-69.985,12.226c-2.553,17.539-5.106,33.826-5.106,35.446s-3.779-13.8-7.66-30.24c-1.94.864-3.855,1.75-5.745,2.678l3.779,54.54L1387.7,713.927a165.386,165.386,0,0,0-46.827,40.759l9.268,34.668-16.928-23.76a138.086,138.086,0,0,0-9.37,17.28l33.831,32.076L1318.709,795.9a127.434,127.434,0,0,0-6.638,40.673h352.707a127.263,127.263,0,0,0-4.749-34.56Z" transform="translate(346.901 47.624)" fill="#4e6e39"/>
        <path id="Path_1736" data-name="Path 1736" d="M159.738,814.735l82.087-23.371c-.664-1.793-1.379-3.564-2.119-5.314l-42.384,3.262,37.737-13.09a149.106,149.106,0,0,0-31.814-41.04l-58.546,30.5,50.937-37.066c-1.787-1.469-3.626-2.873-5.49-4.32L154.4,741.1l26.12-23.479a189.739,189.739,0,0,0-61-25.423L94.272,723.842l9.039-34.56c-2.553-.367-5.107-.691-7.66-.95L73.616,733l6-45.749c-1.992,0-3.983-.108-6-.108A203.4,203.4,0,0,0,3.632,699.369c-2.553,17.539-4.953,33.826-4.953,35.446s-3.8-13.8-7.66-30.24c-1.915.864-3.83,1.75-5.719,2.678l3.753,54.54-16.137-47.866a165.391,165.391,0,0,0-46.827,40.759l9.294,34.668-16.954-23.76a137.912,137.912,0,0,0-9.345,17.28l33.78,31.86L-96.1,795.683a128.126,128.126,0,0,0-6.638,40.673H250a128.246,128.246,0,0,0-4.749-34.56Z" transform="translate(-26.594 47.624)" fill="#4e6e39"/>
        <rect id="Rectangle_1393" data-name="Rectangle 1393" width="1998.946" height="253.022" transform="translate(-44.767 883.98)" fill="#8fa647"/>
        <path id="Path_1737" data-name="Path 1737" d="M943.869,835.17A92.192,92.192,0,0,0,920.251,821.5a81.854,81.854,0,0,1,21.422,3.024l-12.664-12.83a102.765,102.765,0,0,1,20.758,9.353,64.635,64.635,0,0,0-13.021-18.835,50.6,50.6,0,0,1,23.643,15.811,45.307,45.307,0,0,1,3.983-20.887l4.136,16.589a33.727,33.727,0,0,1,13.507-11.6c-1.762,6.156-3.549,12.312-5.311,18.468a38.677,38.677,0,0,1,18.613-8.208l-10.06,14.472a44.34,44.34,0,0,1,21.728-3.5,67.921,67.921,0,0,0-23.337,16.675C970.3,838.108,957.3,837.092,943.869,835.17Z" transform="translate(243.465 55.247)" fill="#8fa647"/>
        <path id="Path_1738" data-name="Path 1738" d="M2205.9,1355.089V1192.83L206.949,1256.658v3.931H2035.236l-805.63,94.5Z" transform="translate(-251.716 -218.087)" fill="#a0ba50"/>
        <path id="Path_1739" data-name="Path 1739" d="M206.949,1143.568H1668.741L206.949,1187.546v6.286H2205.9V1107.95L206.949,1137.542Z" transform="translate(-251.716 -223.97)" fill="#a0ba50"/>
        <path id="Path_1740" data-name="Path 1740" d="M154.207,274.078h0c82.006,0,148.461-56.229,148.446-125.582V-58.843" transform="translate(41.237 -4.078)" fill="none" stroke="#aba867" stroke-miterlimit="10" stroke-width="40.4"/>
        <path id="Path_1741" data-name="Path 1741" d="M186.735,969.741a127.454,127.454,0,0,0-32.529-18.814,112.762,112.762,0,0,1,29.516,4.169l-17.337-17.669a142.138,142.138,0,0,1,28.571,12.96,89.272,89.272,0,0,0-17.873-25.92,70.075,70.075,0,0,1,32.426,21.665,62.166,62.166,0,0,1,5.464-28.75l5.694,22.853a46.33,46.33,0,0,1,18.613-15.984q-3.677,12.7-7.328,25.423A52.968,52.968,0,0,1,257.486,938.4l-13.813,19.915A60.951,60.951,0,0,1,273.6,953.5a93.4,93.4,0,0,0-32.145,22.961C223.145,973.8,205.221,972.4,186.735,969.741Z" transform="translate(41.237 63.581)" fill="#a0ba50"/>
        <path id="Path_1742" data-name="Path 1742" d="M227.42,835.2a90.244,90.244,0,0,0-23.158-13.392,79.8,79.8,0,0,1,21.013,2.959c-4.111-4.19-8.221-8.4-12.358-12.593a100.21,100.21,0,0,1,20.426,9.18,63.983,63.983,0,0,0-12.766-18.49,49.916,49.916,0,0,1,23.184,15.509,44.225,44.225,0,0,1,3.855-20.477l4.06,16.286A32.841,32.841,0,0,1,264.928,802.8l-5.106,18.1a37.921,37.921,0,0,1,18.256-8.035l-9.856,14.191a43.333,43.333,0,0,1,21.32-3.434,66.461,66.461,0,0,0-22.979,16.351C253.362,838.1,240.6,837.1,227.42,835.2Z" transform="translate(54.451 55.3)" fill="#8fa647"/>
        <path id="Path_1743" data-name="Path 1743" d="M362.68,835.939a58.838,58.838,0,0,0-14.937-8.64,52.519,52.519,0,0,1,13.532,1.9l-7.941-8.1a65.284,65.284,0,0,1,13.1,5.919,40.687,40.687,0,0,0-8.222-11.923,32.188,32.188,0,0,1,14.962,10,28.28,28.28,0,0,1,2.553-13.2c.868,3.5,1.736,7,2.553,10.5a20.988,20.988,0,0,1,8.528-7.344l-3.37,11.664a24.253,24.253,0,0,1,11.771-5.162l-6.358,9.137a28.013,28.013,0,0,1,13.737-2.16,42.441,42.441,0,0,0-14.758,10.519C379.429,837.8,371.207,837.149,362.68,835.939Z" transform="translate(92.328 56.27)" fill="#8fa647"/>
        <path id="Path_1744" data-name="Path 1744" d="M1341.044,837.245a126.826,126.826,0,0,0-32.529-18.814,113.678,113.678,0,0,1,29.516,4.126l-17.337-17.647a139.237,139.237,0,0,1,28.571,12.96,88.512,88.512,0,0,0-17.873-25.92c13.2,4.324,24.552,11.911,32.579,21.773a62.255,62.255,0,0,1,5.464-28.771q2.834,11.426,5.694,22.874a46.331,46.331,0,0,1,18.613-15.984q-3.677,12.7-7.328,25.4a53.357,53.357,0,0,1,25.533-11.275l-13.813,19.937a60.679,60.679,0,0,1,29.924-4.817,93.2,93.2,0,0,0-32.171,22.874C1377.454,841.306,1359.555,839.837,1341.044,837.245Z" transform="translate(345.962 54.403)" fill="#a0ba50"/>
        <path id="Path_1745" data-name="Path 1745" d="M773.639,956.873a120.9,120.9,0,0,0-30.945-17.906,106.72,106.72,0,0,1,28.086,3.953l-16.52-16.826a135.069,135.069,0,0,1,27.218,12.269,84.269,84.269,0,0,0-17.081-24.71,66.65,66.65,0,0,1,31.022,20.736,59.231,59.231,0,0,1,5.107-27.367l5.438,21.751a44.092,44.092,0,0,1,17.694-15.12l-6.97,24.192a50.485,50.485,0,0,1,24.384-10.8l-13.149,18.965a57.758,57.758,0,0,1,28.494-4.579,88.482,88.482,0,0,0-30.639,21.859C808.312,960.74,791.256,959.4,773.639,956.873Z" transform="translate(196.591 62.863)" fill="#a0ba50"/>
        <path id="Path_1746" data-name="Path 1746" d="M1166.973,916.635a120.738,120.738,0,0,0-30.945-17.928,107.488,107.488,0,0,1,28.086,3.974l-16.494-16.826a135.5,135.5,0,0,1,27.192,12.269,84.664,84.664,0,0,0-17.055-24.711,66.691,66.691,0,0,1,31,20.736,59.226,59.226,0,0,1,5.107-27.367l5.438,21.751a43.923,43.923,0,0,1,17.694-15.12l-6.97,24.192a50.463,50.463,0,0,1,24.409-10.8l-13.175,18.965a57.739,57.739,0,0,1,28.673-4.644,88.482,88.482,0,0,0-30.639,21.859C1201.647,920.566,1184.591,919.162,1166.973,916.635Z" transform="translate(300.427 60.074)" fill="#8fa647"/>
        <path id="Path_1747" data-name="Path 1747" d="M1074.34,990.419a145.972,145.972,0,0,0-37.252-21.6,129.559,129.559,0,0,1,33.805,4.774l-19.864-20.239a163.167,163.167,0,0,1,32.758,14.753,102.342,102.342,0,0,0-20.554-29.722c15.115,4.966,28.119,13.657,37.328,24.948a71.455,71.455,0,0,1,6.255-32.962q3.243,13.111,6.536,26.2a52.862,52.862,0,0,1,21.32-18.317q-4.161,14.624-8.426,29.139a61.179,61.179,0,0,1,29.362-12.96l-15.856,22.831a69.823,69.823,0,0,1,34.29-5.508,106.465,106.465,0,0,0-36.818,26.309C1116.035,995.064,1095.507,993.443,1074.34,990.419Z" transform="translate(274.308 64.481)" fill="#8fa647"/>
        <path id="Path_1748" data-name="Path 1748" d="M892.609,915.811a104.129,104.129,0,0,0-26.554-15.358,91.762,91.762,0,0,1,24.077,3.391l-14.145-14.407a116.644,116.644,0,0,1,23.337,10.5,73.108,73.108,0,0,0-14.63-21.168,57.2,57.2,0,0,1,26.58,17.777,50.423,50.423,0,0,1,4.468-23.479l4.647,18.662a37.615,37.615,0,0,1,15.167-12.96L929.58,899.5a43.533,43.533,0,0,1,20.911-9.2q-5.643,8.143-11.286,16.265a49.9,49.9,0,0,1,24.435-3.931,76.069,76.069,0,0,0-26.222,18.749C922.3,919.115,907.7,917.971,892.609,915.811Z" transform="translate(229.157 60.509)" fill="#8fa647"/>
        <path id="Path_1749" data-name="Path 1749" d="M311.08,239.794h804.277v176.45c0,187.887-180.044,340.2-402.138,340.2h0c-222.095,0-402.138-152.313-402.138-340.2Z" transform="translate(-224.226 -284.139)" fill="none" stroke="#435e31" stroke-miterlimit="10" stroke-width="14.14"/>
        <path id="Path_1750" data-name="Path 1750" d="M869.687,133.1h804.277v176.45c0,187.912-180.09,340.236-402.215,340.2h0c-222.095,0-402.138-152.313-402.138-340.2V133.1Z" transform="translate(-76.78 -291.534)" fill="none" stroke="#435e31" stroke-miterlimit="10" stroke-width="14.14"/>
        <path id="Path_1751" data-name="Path 1751" d="M86.012,319.948H685.593V451.492c0,140.036-134.2,253.582-299.753,253.606h-.025c-165.567,0-299.79-113.54-299.8-253.606V319.948Z" transform="translate(-283.642 -278.584)" fill="none" stroke="#435e31" stroke-miterlimit="10" stroke-width="14.14"/>
        <path id="Path_1752" data-name="Path 1752" d="M865.532-96.9c5.441-66.254-51.816-124.362-129.833-131.76a172,172,0,0,0-54.384,3.478c-23.605-20.586-54.952-33.57-88.649-36.72-47.652-4.534-94.907,10.967-126.488,41.494-56.984-.994-105.469,34.92-111.833,82.836a79.437,79.437,0,0,0,.2,22.162c-37.8,6.3-66.414,32.6-70.7,64.994-3.121,23.062,6.64,46.038,26.4,62.143-8.583,27.085-2.774,55.99,15.908,79.153s48.378,38.28,81.32,41.4a134.685,134.685,0,0,0,19.532.41c17.322,24.964,48.84,40.423,83.056,40.737s66.123-14.563,84.08-39.2c23.6,20.576,54.938,33.558,88.624,36.72,66.736,6.323,130.017-26.527,153.578-79.726C873.7,71.092,898.256,37.729,903.116.494c4.72-35.536-8.988-71.059-37.584-97.394Z" transform="translate(75.31 -18.206)" fill="#435e31"/>
        <path id="Path_1753" data-name="Path 1753" d="M566.719-31.059c7.187-87.865-68.755-164.911-172.217-174.722a227.71,227.71,0,0,0-72.1,4.622c-31.331-27.3-72.921-44.524-117.629-48.708C141.536-255.915,78.817-235.35,36.918-194.83c-75.591-1.3-139.9,46.34-148.344,109.9a104.691,104.691,0,0,0,.255,29.376c-50.142,8.373-88.1,43.26-93.807,86.227-4.063,30.546,8.881,60.954,35.031,82.3a109.848,109.848,0,0,0-4.187,18.9c-9.2,70.049,50.412,133.161,133.2,141.026a179.381,179.381,0,0,0,25.89.54c22.984,33.113,64.8,53.618,110.184,54.033s87.715-19.318,111.541-52c46.444,40.344,114.061,57.777,179.208,46.2S504.653,271.12,527.986,218.378C576.317,192.252,608.532,149.4,616,101.288S605.434,4.74,566.719-31.059Z" transform="translate(-53.778 -17.39)" fill="#4e6e39"/>
        <path id="Path_1754" data-name="Path 1754" d="M489.63-18.013c35.746,11.6,59.389,45.576,53.95,77.76s-39.371,59.076-77.594,61.711c2.909,7.793-.072,16.3-7.532,21.492a28.392,28.392,0,0,1-27.039,1.534c.843,11.815-16.571,16.675-29.005,11.275-.3,6.8-5.127,12.866-12.46,15.66a28.13,28.13,0,0,1-23.924-2.16c-12.945,24.775-37.482,42.228-69.117,45.49-32.45,3.055-64.464-8.281-84.666-29.981-3.115,14.926-29.924,22.14-45.244,14.256-2.809,8.64-7.915,16.5-18.281,17.863-10.637,1.26-21.193-2.722-27.192-10.26-11.975,18.641-33.524,35.6-58.521,36.914s-49.891-6.35-70.623-18.274-37.609-27.907-53.235-44.561c-37.354-40.154-57.933-82.9-43.865-132.581C-89.949-2.246-48.886-44.194,6.86-65.857,61.934-86.809,125.229-85.449,184.924-77.716S303.4-56.288,363.653-53.74c24.792,1.037,49.891.194,74.223,4.32S476.634-35.92,489.63-18.013Z" transform="translate(-28.29 -5.747)" fill="#5d8243"/>
        <path id="Path_1755" data-name="Path 1755" d="M253.41,241.206a44.383,44.383,0,0,0-29.311-8.273c.587,9.045,5.456,17.508,13.508,23.479a44.623,44.623,0,0,0,29.284,8.252c-.558-9.04-5.421-17.5-13.481-23.458Z" transform="translate(59.688 16.137)" fill="#54783d"/>
        <path id="Path_1756" data-name="Path 1756" d="M382.3,121.952c-9.507,4.191-16.613,11.449-19.711,20.131a46.461,46.461,0,0,0,30.793-2.137c9.507-4.186,16.621-11.435,19.736-20.111A46.219,46.219,0,0,0,382.3,121.952Z" transform="translate(96.248 8.188)" fill="#54783d"/>
        <path id="Path_1757" data-name="Path 1757" d="M276.552,92.794a45.805,45.805,0,0,0-30.435,4.514c5.585,7.745,14.627,13.258,25.079,15.291a45.992,45.992,0,0,0,30.454-4.491C296.077,100.342,287.022,94.817,276.552,92.794Z" transform="translate(65.5 6.372)" fill="#628a47"/>
        <path id="Path_1758" data-name="Path 1758" d="M227.306,141.227c-2.533-8.82-9.172-16.4-18.409-21.017a29.332,29.332,0,0,0-4.908,25.8c2.537,8.81,9.167,16.382,18.39,21a29.226,29.226,0,0,0,4.928-25.79Z" transform="translate(54.08 8.331)" fill="#628a47"/>
        <path id="Path_1759" data-name="Path 1759" d="M357.568,33.17c-10.7.25-20.828,4.144-28.086,10.8a43.988,43.988,0,0,0,28.811,9.44c10.716-.268,20.849-4.187,28.1-10.866A43.9,43.9,0,0,0,357.568,33.17Z" transform="translate(87.508 2.298)" fill="#628a47"/>
        <path id="Path_1760" data-name="Path 1760" d="M67.685,171.324c6.436-7.253,9.134-16.4,7.481-25.358-10.63,1.178-20.249,5.934-26.679,13.192s-9.128,16.4-7.483,25.364c10.637-1.167,20.262-5.928,26.682-13.2Z" transform="translate(11.228 10.116)" fill="#628a47"/>
        <path id="Path_1761" data-name="Path 1761" d="M153.443,222.042c8.218-5.826,13.3-14.217,14.094-23.263a44.833,44.833,0,0,0-29.528,7.721c-8.21,5.835-13.288,14.228-14.082,23.275a44.828,44.828,0,0,0,29.516-7.733Z" transform="translate(33.243 13.765)" fill="#54783d"/>
        <path id="Path_1762" data-name="Path 1762" d="M209.635,226.753c-1.843-8.931-7.886-16.849-16.749-21.946a29.711,29.711,0,0,0-6.923,25.525c1.861,8.95,7.922,16.883,16.8,21.995a29.642,29.642,0,0,0,6.868-25.574Z" transform="translate(49.461 14.195)" fill="#54783d"/>
        <path id="Path_1763" data-name="Path 1763" d="M321.878,168.791a43.388,43.388,0,0,0-28.392,10.282,44.942,44.942,0,0,0,56.938-.281,43.574,43.574,0,0,0-28.545-10Z" transform="translate(78.005 11.698)" fill="#54783d"/>
        <path id="Path_1764" data-name="Path 1764" d="M277.433,203.805a44.384,44.384,0,0,0-29.337,8.208c6.858,6.973,16.752,11.31,27.44,12.03a44.648,44.648,0,0,0,29.344-8.207c-6.846-6.989-16.75-11.33-27.448-12.031Z" transform="translate(66.023 14.117)" fill="#54783d"/>
        <path id="Path_1765" data-name="Path 1765" d="M73.359,249.693c6.931-6.921,10.256-15.92,9.217-24.948-10.678.646-20.6,4.906-27.516,11.816s-10.254,15.888-9.251,24.9c10.686-.615,20.623-4.861,27.55-11.772Z" transform="translate(12.575 15.576)" fill="#54783d"/>
        <path id="Path_1766" data-name="Path 1766" d="M760.975-115.525c-5.428-66.25,51.823-124.351,129.833-131.76a171.972,171.972,0,0,1,54.384,3.478c23.611-20.58,54.955-33.563,88.649-36.72,47.662-4.553,94.935,10.951,126.514,41.493,57.039-1.046,105.591,34.911,111.909,82.879a79.437,79.437,0,0,1-.2,22.162c37.741,6.319,66.3,32.586,70.6,64.93,3.079,23.022-6.668,45.946-26.375,62.035a84.149,84.149,0,0,1,3.14,14.148c7.005,52.83-37.945,100.46-100.394,106.38a134.261,134.261,0,0,1-19.507.41c-17.322,24.964-48.84,40.423-83.056,40.737s-66.123-14.563-84.081-39.2c-23.61,20.58-54.954,33.563-88.649,36.72-66.727,6.313-129.993-26.535-153.553-79.726-37.28-20.121-61.8-53.432-66.691-90.612-4.732-35.509,8.938-71.012,37.482-97.351Z" transform="translate(191.28 -19.497)" fill="#435e31"/>
        <path id="Path_1767" data-name="Path 1767" d="M1102.123-49.662c-7.186-87.876,68.767-164.933,172.243-174.744a227.709,227.709,0,0,1,72.155,4.622c31.318-27.305,72.9-44.528,117.6-48.708,63.229-6.035,125.938,14.538,167.826,55.058,75.639-1.383,140.035,46.274,148.472,109.879a105.651,105.651,0,0,1-.255,29.376c42.774,7.159,77.311,33.821,89.644,69.2s.421,73.63-30.919,99.278a112.85,112.85,0,0,1,4.187,18.792c5.011,37.46-9.82,74.877-40.512,102.208s-74.1,41.78-118.582,39.466c-22.984,33.113-64.8,53.617-110.184,54.033s-87.715-19.318-111.541-52c-46.439,40.376-114.077,57.834-179.25,46.267S1164.2,252.515,1140.856,199.753c-48.322-26.126-80.531-68.978-88-117.079s10.563-96.537,49.268-132.336Z" transform="translate(278.033 -18.68)" fill="#4e6e39"/>
        <path id="Path_1768" data-name="Path 1768" d="M1143.763-36.638c-35.746,11.6-59.414,45.576-53.95,77.76s39.371,59.076,77.568,61.711c-2.873,7.815.16,16.323,7.66,21.492a28.391,28.391,0,0,0,27.013,1.555c-.817,11.794,16.571,16.654,29.005,11.254.31,6.8,5.147,12.868,12.485,15.66a27.978,27.978,0,0,0,23.9-2.16c12.766,24.883,37.406,42.163,69.142,45.49,32.407,3.016,64.362-8.316,84.539-29.981,3.115,14.926,29.949,22.14,45.269,14.256,2.783,8.64,7.915,16.5,18.281,17.863,10.634,1.247,21.178-2.744,27.167-10.282,11.975,18.641,33.524,35.6,58.546,36.914s49.865-6.35,70.6-18.274,37.763-27.886,53.261-44.561c37.354-40.133,57.933-82.879,43.865-132.559-14.768-50.371-55.831-92.32-111.577-113.983-55.074-20.952-118.369-19.591-178.064-11.858S1330-74.913,1269.74-72.364c-24.818,1.037-49.891.194-74.223,4.32S1156.733-54.544,1143.763-36.638Z" transform="translate(288.02 -7.037)" fill="#5d8243"/>
        <path id="Path_1769" data-name="Path 1769" d="M1252.408,222.581a44.442,44.442,0,0,1,29.311-8.273c-.567,9.056-5.428,17.536-13.482,23.521a44.616,44.616,0,0,1-29.31,8.275c.56-9.058,5.422-17.54,13.481-23.522Z" transform="translate(327.591 14.846)" fill="#54783d"/>
        <path id="Path_1786" data-name="Path 1786" d="M8.6-.1c5.825.418,11.351,13.084,12.343,28.29s-2.925,27.194-8.75,26.776S.843,41.879-.149,26.673,2.777-.521,8.6-.1Z" transform="translate(1379.828 115.743) rotate(-62.49)" fill="#54783d"/>
        <path id="Path_1770" data-name="Path 1770" d="M1231.922,74.169a45.9,45.9,0,0,1,30.435,4.514c-5.576,7.749-14.613,13.265-25.063,15.3a45.93,45.93,0,0,1-30.445-4.5c5.557-7.77,14.606-13.3,25.073-15.314Z" transform="translate(319.123 5.081)" fill="#628a47"/>
        <path id="Path_1771" data-name="Path 1771" d="M1274.981,122.561c2.517-8.821,9.161-16.4,18.409-21a29.345,29.345,0,0,1,4.983,25.861c-2.534,8.836-9.185,16.43-18.438,21.054a29.285,29.285,0,0,1-4.953-25.92Z" transform="translate(336.806 7.039)" fill="#628a47"/>
        <path id="Path_1789" data-name="Path 1789" d="M10-.01c5.608.03,10.212,12.8,10.284,28.52S15.864,56.95,10.256,56.92.044,44.121-.028,28.4,4.388-.04,10-.01Z" transform="translate(1418.925 34.965) rotate(-88.3)" fill="#628a47"/>
        <path id="Path_1787" data-name="Path 1787" d="M9.111-.126c6.261.49,12.278,12.375,13.44,26.547S19.58,51.684,13.32,51.194,1.042,38.819-.12,24.647,2.851-.616,9.111-.126Z" transform="translate(1799.507 141.719) rotate(-36.84)" fill="#628a47"/>
        <path id="Path_1772" data-name="Path 1772" d="M1352.541,203.518c-8.212-5.828-13.286-14.22-14.069-23.263a44.828,44.828,0,0,1,29.512,7.73c8.2,5.835,13.279,14.224,14.073,23.266a44.739,44.739,0,0,1-29.516-7.733Z" transform="translate(353.87 12.482)" fill="#54783d"/>
        <path id="Path_1773" data-name="Path 1773" d="M1292.446,208.151c1.846-8.942,7.9-16.868,16.775-21.967a29.712,29.712,0,0,1,6.922,25.525c-1.861,8.95-7.922,16.883-16.8,21.995a29.537,29.537,0,0,1-6.894-25.553Z" transform="translate(341.555 12.904)" fill="#54783d"/>
        <path id="Path_1774" data-name="Path 1774" d="M1186.915,150.167a43.388,43.388,0,0,1,28.392,10.282,44.942,44.942,0,0,1-56.938-.281,43.489,43.489,0,0,1,28.545-10Z" transform="translate(306.325 10.408)" fill="#54783d"/>
        <path id="Path_1775" data-name="Path 1775" d="M1231.291,185.18a44.5,44.5,0,0,1,29.337,8.208c-6.852,6.958-16.731,11.286-27.4,12.006a44.625,44.625,0,0,1-29.3-8.183c6.826-6.975,16.7-11.315,27.37-12.031Z" transform="translate(318.35 12.827)" fill="#54783d"/>
        <path id="Path_1776" data-name="Path 1776" d="M1431.288,231.074c-6.937-6.951-10.244-15.984-9.166-25.034,10.677.646,20.6,4.906,27.516,11.816s10.254,15.888,9.251,24.9c-10.69-.577-20.647-4.793-27.6-11.686Z" transform="translate(375.9 14.28)" fill="#54783d"/>
        <path id="Path_1777" data-name="Path 1777" d="M860.42,1094.911c-2.288-13.487-12.249-25.166-26.656-31.256a57.088,57.088,0,0,0-45.55.735c-15.866-30.013-56.74-44.255-92.99-32.4-20.953-33.237-61.855-54-106.382-54s-85.428,20.761-106.382,54c-20.718-14.564-49.182-18.4-74.223-10-9.006-29.98-34.437-54.5-68.4-65.954s-72.363-8.454-103.277,8.066c-26.328-46.654-83.95-74.731-144.864-70.585S-20.8,933.17-37.97,982.785c-46.256,6.06-80.387,39.739-80.4,79.337a69.908,69.908,0,0,0,8.247,32.789Z" transform="translate(-30.721 61.899)" fill="#3a522b"/>
        <path id="Path_1778" data-name="Path 1778" d="M1042.764,1065.283c2.281-13.495,12.247-25.182,26.664-31.27a57.056,57.056,0,0,1,45.567.77c15.885-29.985,56.722-44.217,92.964-32.4,20.961-33.235,61.866-53.994,106.394-53.994s85.433,20.759,106.394,53.994c20.7-14.59,49.186-18.428,74.223-10,8.956-30.011,34.366-54.576,68.34-66.066s72.4-8.513,103.341,8c26.357-46.652,84.014-74.7,144.934-70.514s112.464,39.751,129.567,89.393c29.253,3.827,54.722,18.978,68.873,40.972s15.365,48.314,3.282,71.175Z" transform="translate(275.807 59.839)" fill="#3a522b"/>
      </g>
    </g>
  </g>
</svg>
