<svg xmlns="http://www.w3.org/2000/svg" xmlns:xlink="http://www.w3.org/1999/xlink" width="587.056" height="468" viewBox="0 0 587.056 468">
  <defs>
    <filter id="Path_1659" x="0.022" y="350.539" width="104.929" height="104.929" filterUnits="userSpaceOnUse">
      <feOffset dy="3" input="SourceAlpha"/>
      <feGaussianBlur stdDeviation="3" result="blur"/>
      <feFlood flood-opacity="0.341"/>
      <feComposite operator="in" in2="blur"/>
      <feComposite in="SourceGraphic"/>
    </filter>
    <filter id="Path_1660" x="93.638" y="350.539" width="104.929" height="104.929" filterUnits="userSpaceOnUse">
      <feOffset dy="3" input="SourceAlpha"/>
      <feGaussianBlur stdDeviation="3" result="blur-2"/>
      <feFlood flood-opacity="0.341"/>
      <feComposite operator="in" in2="blur-2"/>
      <feComposite in="SourceGraphic"/>
    </filter>
    <filter id="Path_1661" x="187.253" y="350.539" width="104.929" height="104.929" filterUnits="userSpaceOnUse">
      <feOffset dy="3" input="SourceAlpha"/>
      <feGaussianBlur stdDeviation="3" result="blur-3"/>
      <feFlood flood-opacity="0.341"/>
      <feComposite operator="in" in2="blur-3"/>
      <feComposite in="SourceGraphic"/>
    </filter>
    <filter id="Path_1662" x="280.995" y="350.539" width="104.929" height="104.929" filterUnits="userSpaceOnUse">
      <feOffset dy="3" input="SourceAlpha"/>
      <feGaussianBlur stdDeviation="3" result="blur-4"/>
      <feFlood flood-opacity="0.341"/>
      <feComposite operator="in" in2="blur-4"/>
      <feComposite in="SourceGraphic"/>
    </filter>
    <filter id="Ellipse_14" x="108.076" y="179" width="113" height="108" filterUnits="userSpaceOnUse">
      <feOffset dy="3" input="SourceAlpha"/>
      <feGaussianBlur stdDeviation="3" result="blur-5"/>
      <feFlood flood-opacity="0.161"/>
      <feComposite operator="in" in2="blur-5"/>
      <feComposite in="SourceGraphic"/>
    </filter>
    <filter id="Ellipse_15" x="124.076" y="194" width="81" height="78" filterUnits="userSpaceOnUse">
      <feOffset dy="3" input="SourceAlpha"/>
      <feGaussianBlur stdDeviation="3" result="blur-6"/>
      <feFlood flood-opacity="0.161"/>
      <feComposite operator="in" in2="blur-6"/>
      <feComposite in="SourceGraphic"/>
    </filter>
    <filter id="Rectangle_14" x="157.076" y="12" width="42" height="133" filterUnits="userSpaceOnUse">
      <feOffset dy="3" input="SourceAlpha"/>
      <feGaussianBlur stdDeviation="3" result="blur-7"/>
      <feFlood flood-opacity="0.161"/>
      <feComposite operator="in" in2="blur-7"/>
      <feComposite in="SourceGraphic"/>
    </filter>
    <filter id="Rectangle_57" x="115.076" y="52" width="41" height="93" filterUnits="userSpaceOnUse">
      <feOffset dy="3" input="SourceAlpha"/>
      <feGaussianBlur stdDeviation="3" result="blur-8"/>
      <feFlood flood-opacity="0.161"/>
      <feComposite operator="in" in2="blur-8"/>
      <feComposite in="SourceGraphic"/>
    </filter>
    <filter id="Rectangle_11" x="197.076" y="52" width="40" height="93" filterUnits="userSpaceOnUse">
      <feOffset dy="3" input="SourceAlpha"/>
      <feGaussianBlur stdDeviation="3" result="blur-9"/>
      <feFlood flood-opacity="0.161"/>
      <feComposite operator="in" in2="blur-9"/>
      <feComposite in="SourceGraphic"/>
    </filter>
    <filter id="Rectangle_58" x="272.076" y="52" width="41" height="93" filterUnits="userSpaceOnUse">
      <feOffset dy="3" input="SourceAlpha"/>
      <feGaussianBlur stdDeviation="3" result="blur-10"/>
      <feFlood flood-opacity="0.161"/>
      <feComposite operator="in" in2="blur-10"/>
      <feComposite in="SourceGraphic"/>
    </filter>
    <filter id="Rectangle_122" x="237.076" y="71" width="41" height="73" filterUnits="userSpaceOnUse">
      <feOffset dy="3" input="SourceAlpha"/>
      <feGaussianBlur stdDeviation="3" result="blur-11"/>
      <feFlood flood-opacity="0.161"/>
      <feComposite operator="in" in2="blur-11"/>
      <feComposite in="SourceGraphic"/>
    </filter>
    <filter id="Ellipse_14-2" x="233.076" y="179" width="112" height="108" filterUnits="userSpaceOnUse">
      <feOffset dy="3" input="SourceAlpha"/>
      <feGaussianBlur stdDeviation="3" result="blur-12"/>
      <feFlood flood-opacity="0.161"/>
      <feComposite operator="in" in2="blur-12"/>
      <feComposite in="SourceGraphic"/>
    </filter>
    <filter id="Ellipse_15-2" x="249.076" y="194" width="80" height="78" filterUnits="userSpaceOnUse">
      <feOffset dy="3" input="SourceAlpha"/>
      <feGaussianBlur stdDeviation="3" result="blur-13"/>
      <feFlood flood-opacity="0.161"/>
      <feComposite operator="in" in2="blur-13"/>
      <feComposite in="SourceGraphic"/>
    </filter>
    <filter id="Ellipse_14-3" x="353.076" y="179" width="112" height="108" filterUnits="userSpaceOnUse">
      <feOffset dy="3" input="SourceAlpha"/>
      <feGaussianBlur stdDeviation="3" result="blur-14"/>
      <feFlood flood-opacity="0.161"/>
      <feComposite operator="in" in2="blur-14"/>
      <feComposite in="SourceGraphic"/>
    </filter>
    <filter id="Ellipse_15-3" x="369.076" y="194" width="80" height="78" filterUnits="userSpaceOnUse">
      <feOffset dy="3" input="SourceAlpha"/>
      <feGaussianBlur stdDeviation="3" result="blur-15"/>
      <feFlood flood-opacity="0.161"/>
      <feComposite operator="in" in2="blur-15"/>
      <feComposite in="SourceGraphic"/>
    </filter>
    <filter id="Rectangle_157" x="308.076" y="11" width="41" height="133" filterUnits="userSpaceOnUse">
      <feOffset dy="3" input="SourceAlpha"/>
      <feGaussianBlur stdDeviation="3" result="blur-16"/>
      <feFlood flood-opacity="0.161"/>
      <feComposite operator="in" in2="blur-16"/>
      <feComposite in="SourceGraphic"/>
    </filter>
    <filter id="Rectangle_159" x="347.076" y="52" width="40" height="92" filterUnits="userSpaceOnUse">
      <feOffset dy="3" input="SourceAlpha"/>
      <feGaussianBlur stdDeviation="3" result="blur-17"/>
      <feFlood flood-opacity="0.161"/>
      <feComposite operator="in" in2="blur-17"/>
      <feComposite in="SourceGraphic"/>
    </filter>
    <filter id="Rectangle_160" x="423.076" y="52" width="41" height="92" filterUnits="userSpaceOnUse">
      <feOffset dy="3" input="SourceAlpha"/>
      <feGaussianBlur stdDeviation="3" result="blur-18"/>
      <feFlood flood-opacity="0.161"/>
      <feComposite operator="in" in2="blur-18"/>
      <feComposite in="SourceGraphic"/>
    </filter>
    <filter id="Rectangle_161" x="388.076" y="70" width="41" height="73" filterUnits="userSpaceOnUse">
      <feOffset dy="3" input="SourceAlpha"/>
      <feGaussianBlur stdDeviation="3" result="blur-19"/>
      <feFlood flood-opacity="0.161"/>
      <feComposite operator="in" in2="blur-19"/>
      <feComposite in="SourceGraphic"/>
    </filter>
  </defs>
  <g id="Group_843" data-name="Group 843" transform="translate(-758.229 -558.701)">
    <rect id="Rectangle_1268" data-name="Rectangle 1268" width="587.056" height="468" rx="22" transform="translate(758.229 558.701)" fill="#757575"/>
    <g transform="matrix(1, 0, 0, 1, 758.23, 558.7)" filter="url(#Path_1659)">
      <path id="Path_1659-2" data-name="Path 1659" d="M43.464,0A43.464,43.464,0,1,1,0,43.464,43.464,43.464,0,0,1,43.464,0Z" transform="translate(9.02 356.54)" fill="#fff"/>
    </g>
    <g id="Ellipse_174" data-name="Ellipse 174" transform="translate(822.259 973.701)" fill="#8af961" stroke="#707070" stroke-width="4">
      <ellipse cx="14" cy="15.5" rx="14" ry="15.5" stroke="none"/>
      <ellipse cx="14" cy="15.5" rx="12" ry="13.5" fill="none"/>
    </g>
    <g transform="matrix(1, 0, 0, 1, 758.23, 558.7)" filter="url(#Path_1660)">
      <path id="Path_1660-2" data-name="Path 1660" d="M43.464,0A43.464,43.464,0,1,1,0,43.464,43.464,43.464,0,0,1,43.464,0Z" transform="translate(102.64 356.54)" fill="#fff"/>
    </g>
    <g id="Ellipse_175" data-name="Ellipse 175" transform="translate(916.259 973.701)" fill="#8af961" stroke="#707070" stroke-width="4">
      <ellipse cx="14" cy="15.5" rx="14" ry="15.5" stroke="none"/>
      <ellipse cx="14" cy="15.5" rx="12" ry="13.5" fill="none"/>
    </g>
    <g transform="matrix(1, 0, 0, 1, 758.23, 558.7)" filter="url(#Path_1661)">
      <path id="Path_1661-2" data-name="Path 1661" d="M43.464,0A43.464,43.464,0,1,1,0,43.464,43.464,43.464,0,0,1,43.464,0Z" transform="translate(196.25 356.54)" fill="#fff"/>
    </g>
    <g id="Ellipse_176" data-name="Ellipse 176" transform="translate(1009.259 973.701)" fill="#8af961" stroke="#707070" stroke-width="4">
      <ellipse cx="14.5" cy="15.5" rx="14.5" ry="15.5" stroke="none"/>
      <ellipse cx="14.5" cy="15.5" rx="12.5" ry="13.5" fill="none"/>
    </g>
    <g transform="matrix(1, 0, 0, 1, 758.23, 558.7)" filter="url(#Path_1662)">
      <path id="Path_1662-2" data-name="Path 1662" d="M43.464,0A43.464,43.464,0,1,1,0,43.464,43.464,43.464,0,0,1,43.464,0Z" transform="translate(289.99 356.54)" fill="#fff"/>
    </g>
    <g id="Ellipse_177" data-name="Ellipse 177" transform="translate(1106.625 973.86)" fill="#8af961" stroke="#707070" stroke-width="4">
      <ellipse cx="14.264" cy="15.42" rx="14.264" ry="15.42" stroke="none"/>
      <ellipse cx="14.264" cy="15.42" rx="12.264" ry="13.42" fill="none"/>
    </g>
    <text id="People_online_" data-name="People online " transform="translate(772.648 892.425)" fill="#f5f5f5" stroke="#f5f5f5" stroke-width="1" font-size="21" font-family="SegoeUI, Segoe UI"><tspan x="0" y="0">People online </tspan></text>
    <line id="Line_69" data-name="Line 69" x2="550" transform="translate(776.757 857.611)" fill="none" stroke="#d8d8d8" stroke-linecap="round" stroke-width="6"/>
    <g id="Group_267" data-name="Group 267" transform="translate(875.639 743.27)">
      <g transform="matrix(1, 0, 0, 1, -117.41, -184.57)" filter="url(#Ellipse_14)">
        <g id="Ellipse_14-4" data-name="Ellipse 14" transform="translate(117.08 185)" fill="#41e34c" stroke="#707070" stroke-width="3">
          <ellipse cx="47.5" cy="45" rx="47.5" ry="45" stroke="none"/>
          <ellipse cx="47.5" cy="45" rx="46" ry="43.5" fill="none"/>
        </g>
      </g>
      <g transform="matrix(1, 0, 0, 1, -117.41, -184.57)" filter="url(#Ellipse_15)">
        <ellipse id="Ellipse_15-4" data-name="Ellipse 15" cx="31.5" cy="30" rx="31.5" ry="30" transform="translate(133.08 200)" fill="#fff"/>
      </g>
    </g>
    <g transform="matrix(1, 0, 0, 1, 758.23, 558.7)" filter="url(#Rectangle_14)">
      <rect id="Rectangle_14-2" data-name="Rectangle 14" width="24" height="115" rx="12" transform="translate(166.08 18)" fill="#f9b700"/>
    </g>
    <g transform="matrix(1, 0, 0, 1, 758.23, 558.7)" filter="url(#Rectangle_57)">
      <rect id="Rectangle_57-2" data-name="Rectangle 57" width="23" height="75" rx="11.5" transform="translate(124.08 58)" fill="#f9b700"/>
    </g>
    <g transform="matrix(1, 0, 0, 1, 758.23, 558.7)" filter="url(#Rectangle_11)">
      <rect id="Rectangle_11-2" data-name="Rectangle 11" width="22" height="75" rx="11" transform="translate(206.08 58)" fill="#f9b700"/>
    </g>
    <text id="_5" data-name="5" transform="translate(837.305 686.701)" fill="#f5f5f5" stroke="#f5f5f5" stroke-width="1" font-size="16" font-family="SegoeUI, Segoe UI"><tspan x="0" y="0">5</tspan></text>
    <text id="_10" data-name="10" transform="translate(833.305 650.701)" fill="#f5f5f5" stroke="#f5f5f5" stroke-width="1" font-size="16" font-family="SegoeUI, Segoe UI"><tspan x="0" y="0">10</tspan></text>
    <text id="_20" data-name="20" transform="translate(833.305 615.701)" fill="#f5f5f5" stroke="#f5f5f5" stroke-width="1" font-size="16" font-family="SegoeUI, Segoe UI"><tspan x="0" y="0">20</tspan></text>
    <g transform="matrix(1, 0, 0, 1, 758.23, 558.7)" filter="url(#Rectangle_58)">
      <rect id="Rectangle_58-2" data-name="Rectangle 58" width="23" height="75" rx="11.5" transform="translate(281.08 58)" fill="#f9b700"/>
    </g>
    <g transform="matrix(1, 0, 0, 1, 758.23, 558.7)" filter="url(#Rectangle_122)">
      <rect id="Rectangle_122-2" data-name="Rectangle 122" width="23" height="55" rx="11.5" transform="translate(246.08 77)" fill="#f9b700"/>
    </g>
    <g id="Group_268" data-name="Group 268" transform="translate(999.992 743.27)">
      <g transform="matrix(1, 0, 0, 1, -241.76, -184.57)" filter="url(#Ellipse_14-2)">
        <g id="Ellipse_14-5" data-name="Ellipse 14" transform="translate(242.08 185)" fill="#41e34c" stroke="#707070" stroke-width="3">
          <ellipse cx="47" cy="45" rx="47" ry="45" stroke="none"/>
          <ellipse cx="47" cy="45" rx="45.5" ry="43.5" fill="none"/>
        </g>
      </g>
      <g transform="matrix(1, 0, 0, 1, -241.76, -184.57)" filter="url(#Ellipse_15-2)">
        <ellipse id="Ellipse_15-5" data-name="Ellipse 15" cx="31" cy="30" rx="31" ry="30" transform="translate(258.08 200)" fill="#fff"/>
      </g>
    </g>
    <g id="Group_269" data-name="Group 269" transform="translate(1119.937 743.27)">
      <g transform="matrix(1, 0, 0, 1, -361.71, -184.57)" filter="url(#Ellipse_14-3)">
        <g id="Ellipse_14-6" data-name="Ellipse 14" transform="translate(362.08 185)" fill="#41e34c" stroke="#707070" stroke-width="3">
          <ellipse cx="47" cy="45" rx="47" ry="45" stroke="none"/>
          <ellipse cx="47" cy="45" rx="45.5" ry="43.5" fill="none"/>
        </g>
      </g>
      <g transform="matrix(1, 0, 0, 1, -361.71, -184.57)" filter="url(#Ellipse_15-3)">
        <ellipse id="Ellipse_15-6" data-name="Ellipse 15" cx="31" cy="30" rx="31" ry="30" transform="translate(378.08 200)" fill="#fff"/>
      </g>
    </g>
    <g transform="matrix(1, 0, 0, 1, 758.23, 558.7)" filter="url(#Rectangle_157)">
      <rect id="Rectangle_157-2" data-name="Rectangle 157" width="23" height="115" rx="11.5" transform="translate(317.08 17)" fill="#f9b700"/>
    </g>
    <g transform="matrix(1, 0, 0, 1, 758.23, 558.7)" filter="url(#Rectangle_159)">
      <rect id="Rectangle_159-2" data-name="Rectangle 159" width="22" height="74" rx="11" transform="translate(356.08 58)" fill="#f9b700"/>
    </g>
    <g transform="matrix(1, 0, 0, 1, 758.23, 558.7)" filter="url(#Rectangle_160)">
      <rect id="Rectangle_160-2" data-name="Rectangle 160" width="23" height="74" rx="11.5" transform="translate(432.08 58)" fill="#f9b700"/>
    </g>
    <g transform="matrix(1, 0, 0, 1, 758.23, 558.7)" filter="url(#Rectangle_161)">
      <rect id="Rectangle_161-2" data-name="Rectangle 161" width="23" height="55" rx="11.5" transform="translate(397.08 76)" fill="#f9b700"/>
    </g>
  </g>
</svg>
