<svg xmlns="http://www.w3.org/2000/svg" xmlns:xlink="http://www.w3.org/1999/xlink" width="674.552" height="416.34" viewBox="0 0 674.552 416.34">
  <defs>
    <filter id="Path_1659" x="0" y="311.183" width="95.333" height="95.333" filterUnits="userSpaceOnUse">
      <feOffset dy="3" input="SourceAlpha"/>
      <feGaussianBlur stdDeviation="3" result="blur"/>
      <feFlood flood-opacity="0.341"/>
      <feComposite operator="in" in2="blur"/>
      <feComposite in="SourceGraphic"/>
    </filter>
    <filter id="Path_1660" x="114.337" y="311.183" width="95.333" height="95.333" filterUnits="userSpaceOnUse">
      <feOffset dy="3" input="SourceAlpha"/>
      <feGaussianBlur stdDeviation="3" result="blur-2"/>
      <feFlood flood-opacity="0.341"/>
      <feComposite operator="in" in2="blur-2"/>
      <feComposite in="SourceGraphic"/>
    </filter>
    <filter id="Path_1661" x="225.944" y="311.183" width="95.333" height="95.333" filterUnits="userSpaceOnUse">
      <feOffset dy="3" input="SourceAlpha"/>
      <feGaussianBlur stdDeviation="3" result="blur-3"/>
      <feFlood flood-opacity="0.341"/>
      <feComposite operator="in" in2="blur-3"/>
      <feComposite in="SourceGraphic"/>
    </filter>
    <filter id="Path_1662" x="337.702" y="311.183" width="95.333" height="95.333" filterUnits="userSpaceOnUse">
      <feOffset dy="3" input="SourceAlpha"/>
      <feGaussianBlur stdDeviation="3" result="blur-4"/>
      <feFlood flood-opacity="0.341"/>
      <feComposite operator="in" in2="blur-4"/>
      <feComposite in="SourceGraphic"/>
    </filter>
    <filter id="Ellipse_14" x="132.132" y="158.579" width="102.513" height="98.065" filterUnits="userSpaceOnUse">
      <feOffset dy="3" input="SourceAlpha"/>
      <feGaussianBlur stdDeviation="3" result="blur-5"/>
      <feFlood flood-opacity="0.161"/>
      <feComposite operator="in" in2="blur-5"/>
      <feComposite in="SourceGraphic"/>
    </filter>
    <filter id="Ellipse_15" x="146.366" y="171.923" width="74.046" height="71.377" filterUnits="userSpaceOnUse">
      <feOffset dy="3" input="SourceAlpha"/>
      <feGaussianBlur stdDeviation="3" result="blur-6"/>
      <feFlood flood-opacity="0.161"/>
      <feComposite operator="in" in2="blur-6"/>
      <feComposite in="SourceGraphic"/>
    </filter>
    <filter id="Rectangle_14" x="184.351" y="10.013" width="39.351" height="120.306" filterUnits="userSpaceOnUse">
      <feOffset dy="3" input="SourceAlpha"/>
      <feGaussianBlur stdDeviation="3" result="blur-7"/>
      <feFlood flood-opacity="0.161"/>
      <feComposite operator="in" in2="blur-7"/>
      <feComposite in="SourceGraphic"/>
    </filter>
    <filter id="Rectangle_57" x="135.641" y="45.598" width="38.461" height="84.721" filterUnits="userSpaceOnUse">
      <feOffset dy="3" input="SourceAlpha"/>
      <feGaussianBlur stdDeviation="3" result="blur-8"/>
      <feFlood flood-opacity="0.161"/>
      <feComposite operator="in" in2="blur-8"/>
      <feComposite in="SourceGraphic"/>
    </filter>
    <filter id="Rectangle_11" x="230.49" y="45.598" width="37.572" height="84.721" filterUnits="userSpaceOnUse">
      <feOffset dy="3" input="SourceAlpha"/>
      <feGaussianBlur stdDeviation="3" result="blur-9"/>
      <feFlood flood-opacity="0.161"/>
      <feComposite operator="in" in2="blur-9"/>
      <feComposite in="SourceGraphic"/>
    </filter>
    <filter id="Rectangle_58" x="317.43" y="45.598" width="38.461" height="84.721" filterUnits="userSpaceOnUse">
      <feOffset dy="3" input="SourceAlpha"/>
      <feGaussianBlur stdDeviation="3" result="blur-10"/>
      <feFlood flood-opacity="0.161"/>
      <feComposite operator="in" in2="blur-10"/>
      <feComposite in="SourceGraphic"/>
    </filter>
    <filter id="Rectangle_122" x="276.904" y="62.5" width="38.461" height="66.929" filterUnits="userSpaceOnUse">
      <feOffset dy="3" input="SourceAlpha"/>
      <feGaussianBlur stdDeviation="3" result="blur-11"/>
      <feFlood flood-opacity="0.161"/>
      <feComposite operator="in" in2="blur-11"/>
      <feComposite in="SourceGraphic"/>
    </filter>
    <filter id="Ellipse_14-2" x="281.624" y="158.579" width="101.624" height="98.065" filterUnits="userSpaceOnUse">
      <feOffset dy="3" input="SourceAlpha"/>
      <feGaussianBlur stdDeviation="3" result="blur-12"/>
      <feFlood flood-opacity="0.161"/>
      <feComposite operator="in" in2="blur-12"/>
      <feComposite in="SourceGraphic"/>
    </filter>
    <filter id="Ellipse_15-2" x="295.858" y="171.923" width="73.156" height="71.377" filterUnits="userSpaceOnUse">
      <feOffset dy="3" input="SourceAlpha"/>
      <feGaussianBlur stdDeviation="3" result="blur-13"/>
      <feFlood flood-opacity="0.161"/>
      <feComposite operator="in" in2="blur-13"/>
      <feComposite in="SourceGraphic"/>
    </filter>
    <filter id="Ellipse_14-3" x="425.207" y="158.579" width="101.624" height="98.065" filterUnits="userSpaceOnUse">
      <feOffset dy="3" input="SourceAlpha"/>
      <feGaussianBlur stdDeviation="3" result="blur-14"/>
      <feFlood flood-opacity="0.161"/>
      <feComposite operator="in" in2="blur-14"/>
      <feComposite in="SourceGraphic"/>
    </filter>
    <filter id="Ellipse_15-3" x="439.441" y="171.923" width="73.156" height="71.377" filterUnits="userSpaceOnUse">
      <feOffset dy="3" input="SourceAlpha"/>
      <feGaussianBlur stdDeviation="3" result="blur-15"/>
      <feFlood flood-opacity="0.161"/>
      <feComposite operator="in" in2="blur-15"/>
      <feComposite in="SourceGraphic"/>
    </filter>
    <filter id="Rectangle_157" x="359.114" y="9.123" width="38.461" height="120.306" filterUnits="userSpaceOnUse">
      <feOffset dy="3" input="SourceAlpha"/>
      <feGaussianBlur stdDeviation="3" result="blur-16"/>
      <feFlood flood-opacity="0.161"/>
      <feComposite operator="in" in2="blur-16"/>
      <feComposite in="SourceGraphic"/>
    </filter>
    <filter id="Rectangle_159" x="404.103" y="45.598" width="37.572" height="83.832" filterUnits="userSpaceOnUse">
      <feOffset dy="3" input="SourceAlpha"/>
      <feGaussianBlur stdDeviation="3" result="blur-17"/>
      <feFlood flood-opacity="0.161"/>
      <feComposite operator="in" in2="blur-17"/>
      <feComposite in="SourceGraphic"/>
    </filter>
    <filter id="Rectangle_160" x="492.272" y="45.598" width="38.461" height="83.832" filterUnits="userSpaceOnUse">
      <feOffset dy="3" input="SourceAlpha"/>
      <feGaussianBlur stdDeviation="3" result="blur-18"/>
      <feFlood flood-opacity="0.161"/>
      <feComposite operator="in" in2="blur-18"/>
      <feComposite in="SourceGraphic"/>
    </filter>
    <filter id="Rectangle_161" x="451.746" y="61.611" width="38.461" height="66.929" filterUnits="userSpaceOnUse">
      <feOffset dy="3" input="SourceAlpha"/>
      <feGaussianBlur stdDeviation="3" result="blur-19"/>
      <feFlood flood-opacity="0.161"/>
      <feComposite operator="in" in2="blur-19"/>
      <feComposite in="SourceGraphic"/>
    </filter>
  </defs>
  <g id="Group_843" data-name="Group 843" transform="translate(-757.255 -558.701)">
    <rect id="Rectangle_1268" data-name="Rectangle 1268" width="673.578" height="416.34" rx="22" transform="translate(758.229 558.701)" fill="#757575"/>
    <g transform="matrix(1, 0, 0, 1, 757.26, 558.7)" filter="url(#Path_1659)">
      <path id="Path_1659-2" data-name="Path 1659" d="M38.667,0A38.667,38.667,0,1,1,0,38.667,38.667,38.667,0,0,1,38.667,0Z" transform="translate(9 317.18)" fill="#fff"/>
    </g>
    <g id="Ellipse_174" data-name="Ellipse 174" transform="translate(815.191 927.891)" fill="#8af961" stroke="#707070" stroke-width="4">
      <ellipse cx="12.455" cy="13.789" rx="12.455" ry="13.789" stroke="none"/>
      <ellipse cx="12.455" cy="13.789" rx="10.455" ry="11.789" fill="none"/>
    </g>
    <g transform="matrix(1, 0, 0, 1, 757.26, 558.7)" filter="url(#Path_1660)">
      <path id="Path_1660-2" data-name="Path 1660" d="M38.667,0A38.667,38.667,0,1,1,0,38.667,38.667,38.667,0,0,1,38.667,0Z" transform="translate(123.34 317.18)" fill="#fff"/>
    </g>
    <g id="Ellipse_175" data-name="Ellipse 175" transform="translate(941.59 927.891)" fill="#8af961" stroke="#707070" stroke-width="4">
      <ellipse cx="12.455" cy="13.789" rx="12.455" ry="13.789" stroke="none"/>
      <ellipse cx="12.455" cy="13.789" rx="10.455" ry="11.789" fill="none"/>
    </g>
    <g transform="matrix(1, 0, 0, 1, 757.26, 558.7)" filter="url(#Path_1661)">
      <path id="Path_1661-2" data-name="Path 1661" d="M38.667,0A38.667,38.667,0,1,1,0,38.667,38.667,38.667,0,0,1,38.667,0Z" transform="translate(234.94 317.18)" fill="#fff"/>
    </g>
    <g id="Ellipse_176" data-name="Ellipse 176" transform="translate(1049.619 927.891)" fill="#8af961" stroke="#707070" stroke-width="4">
      <ellipse cx="12.899" cy="13.789" rx="12.899" ry="13.789" stroke="none"/>
      <ellipse cx="12.899" cy="13.789" rx="10.899" ry="11.789" fill="none"/>
    </g>
    <g transform="matrix(1, 0, 0, 1, 757.26, 558.7)" filter="url(#Path_1662)">
      <path id="Path_1662-2" data-name="Path 1662" d="M38.667,0A38.667,38.667,0,1,1,0,38.667,38.667,38.667,0,0,1,38.667,0Z" transform="translate(346.7 317.18)" fill="#fff"/>
    </g>
    <g id="Ellipse_177" data-name="Ellipse 177" transform="translate(1162.559 928.033)" fill="#8af961" stroke="#707070" stroke-width="4">
      <ellipse cx="12.689" cy="13.718" rx="12.689" ry="13.718" stroke="none"/>
      <ellipse cx="12.689" cy="13.718" rx="10.689" ry="11.718" fill="none"/>
    </g>
    <text id="People_online_" data-name="People online " transform="translate(771.056 854.126)" fill="#f5f5f5" stroke="#f5f5f5" stroke-width="1" font-size="18" font-family="SegoeUI, Segoe UI"><tspan x="0" y="0">People online </tspan></text>
    <line id="Line_69" data-name="Line 69" x2="640.612" transform="translate(774.711 824.616)" fill="none" stroke="#d8d8d8" stroke-linecap="round" stroke-width="6"/>
    <g id="Group_267" data-name="Group 267" transform="translate(898.387 723.279)">
      <g transform="matrix(1, 0, 0, 1, -141.13, -164.58)" filter="url(#Ellipse_14)">
        <g id="Ellipse_14-4" data-name="Ellipse 14" transform="translate(141.13 164.58)" fill="#41e34c" stroke="#707070" stroke-width="3">
          <ellipse cx="42.257" cy="40.033" rx="42.257" ry="40.033" stroke="none"/>
          <ellipse cx="42.257" cy="40.033" rx="40.757" ry="38.533" fill="none"/>
        </g>
      </g>
      <g transform="matrix(1, 0, 0, 1, -141.13, -164.58)" filter="url(#Ellipse_15)">
        <ellipse id="Ellipse_15-4" data-name="Ellipse 15" cx="28.023" cy="26.688" rx="28.023" ry="26.688" transform="translate(155.37 177.92)" fill="#fff"/>
      </g>
    </g>
    <g transform="matrix(1, 0, 0, 1, 757.26, 558.7)" filter="url(#Rectangle_14)">
      <rect id="Rectangle_14-2" data-name="Rectangle 14" width="21.351" height="102.306" rx="10.675" transform="translate(193.35 16.01)" fill="#f9b700"/>
    </g>
    <g transform="matrix(1, 0, 0, 1, 757.26, 558.7)" filter="url(#Rectangle_57)">
      <rect id="Rectangle_57-2" data-name="Rectangle 57" width="20.461" height="66.721" rx="10.231" transform="translate(144.64 51.6)" fill="#f9b700"/>
    </g>
    <g transform="matrix(1, 0, 0, 1, 757.26, 558.7)" filter="url(#Rectangle_11)">
      <rect id="Rectangle_11-2" data-name="Rectangle 11" width="19.572" height="66.721" rx="9.786" transform="translate(239.49 51.6)" fill="#f9b700"/>
    </g>
    <text id="_5" data-name="5" transform="translate(828.576 671.448)" fill="#f5f5f5" stroke="#f5f5f5" stroke-width="1" font-size="13" font-family="SegoeUI, Segoe UI"><tspan x="0" y="0">5</tspan></text>
    <text id="_10" data-name="10" transform="translate(825.018 639.422)" fill="#f5f5f5" stroke="#f5f5f5" stroke-width="1" font-size="13" font-family="SegoeUI, Segoe UI"><tspan x="0" y="0">10</tspan></text>
    <text id="_20" data-name="20" transform="translate(825.018 608.285)" fill="#f5f5f5" stroke="#f5f5f5" stroke-width="1" font-size="13" font-family="SegoeUI, Segoe UI"><tspan x="0" y="0">20</tspan></text>
    <g transform="matrix(1, 0, 0, 1, 757.26, 558.7)" filter="url(#Rectangle_58)">
      <rect id="Rectangle_58-2" data-name="Rectangle 58" width="20.461" height="66.721" rx="10.231" transform="translate(326.43 51.6)" fill="#f9b700"/>
    </g>
    <g transform="matrix(1, 0, 0, 1, 757.26, 558.7)" filter="url(#Rectangle_122)">
      <rect id="Rectangle_122-2" data-name="Rectangle 122" width="20.461" height="48.929" rx="10.231" transform="translate(285.9 68.5)" fill="#f9b700"/>
    </g>
    <g id="Group_268" data-name="Group 268" transform="translate(1047.879 723.279)">
      <g transform="matrix(1, 0, 0, 1, -290.62, -164.58)" filter="url(#Ellipse_14-2)">
        <g id="Ellipse_14-5" data-name="Ellipse 14" transform="translate(290.62 164.58)" fill="#41e34c" stroke="#707070" stroke-width="3">
          <ellipse cx="41.812" cy="40.033" rx="41.812" ry="40.033" stroke="none"/>
          <ellipse cx="41.812" cy="40.033" rx="40.312" ry="38.533" fill="none"/>
        </g>
      </g>
      <g transform="matrix(1, 0, 0, 1, -290.62, -164.58)" filter="url(#Ellipse_15-2)">
        <ellipse id="Ellipse_15-5" data-name="Ellipse 15" cx="27.578" cy="26.688" rx="27.578" ry="26.688" transform="translate(304.86 177.92)" fill="#fff"/>
      </g>
    </g>
    <g id="Group_269" data-name="Group 269" transform="translate(1191.462 723.279)">
      <g transform="matrix(1, 0, 0, 1, -434.21, -164.58)" filter="url(#Ellipse_14-3)">
        <g id="Ellipse_14-6" data-name="Ellipse 14" transform="translate(434.21 164.58)" fill="#41e34c" stroke="#707070" stroke-width="3">
          <ellipse cx="41.812" cy="40.033" rx="41.812" ry="40.033" stroke="none"/>
          <ellipse cx="41.812" cy="40.033" rx="40.312" ry="38.533" fill="none"/>
        </g>
      </g>
      <g transform="matrix(1, 0, 0, 1, -434.21, -164.58)" filter="url(#Ellipse_15-3)">
        <ellipse id="Ellipse_15-6" data-name="Ellipse 15" cx="27.578" cy="26.688" rx="27.578" ry="26.688" transform="translate(448.44 177.92)" fill="#fff"/>
      </g>
    </g>
    <g transform="matrix(1, 0, 0, 1, 757.26, 558.7)" filter="url(#Rectangle_157)">
      <rect id="Rectangle_157-2" data-name="Rectangle 157" width="20.461" height="102.306" rx="10.231" transform="translate(368.11 15.12)" fill="#f9b700"/>
    </g>
    <g transform="matrix(1, 0, 0, 1, 757.26, 558.7)" filter="url(#Rectangle_159)">
      <rect id="Rectangle_159-2" data-name="Rectangle 159" width="19.572" height="65.832" rx="9.786" transform="translate(413.1 51.6)" fill="#f9b700"/>
    </g>
    <g transform="matrix(1, 0, 0, 1, 757.26, 558.7)" filter="url(#Rectangle_160)">
      <rect id="Rectangle_160-2" data-name="Rectangle 160" width="20.461" height="65.832" rx="10.231" transform="translate(501.27 51.6)" fill="#f9b700"/>
    </g>
    <g transform="matrix(1, 0, 0, 1, 757.26, 558.7)" filter="url(#Rectangle_161)">
      <rect id="Rectangle_161-2" data-name="Rectangle 161" width="20.461" height="48.929" rx="10.231" transform="translate(460.75 67.61)" fill="#f9b700"/>
    </g>
  </g>
</svg>
