<svg xmlns="http://www.w3.org/2000/svg" xmlns:xlink="http://www.w3.org/1999/xlink" width="1920" height="1080" viewBox="0 0 1920 1080">
  <defs>
    <clipPath id="clip-Web_1920_65">
      <rect width="1920" height="1080"/>
    </clipPath>
  </defs>
  <g id="Web_1920_65" data-name="Web 1920 – 65" clip-path="url(#clip-Web_1920_65)">
    <rect width="1920" height="1080" fill="#0dccfc"/>
    <g id="Group_720" data-name="Group 720" transform="translate(2205.1 1250.863) rotate(180)">
      <g id="Group_718" data-name="Group 718">
        <path id="Path_1646" data-name="Path 1646" d="M350.529,0H423.1L220.934,341.726H139.723Z" transform="translate(-139.723)" fill="#fff"/>
        <path id="Path_1647" data-name="Path 1647" d="M350.529,0H423.1L220.934,341.726H139.723Z" transform="translate(1.967)" fill="#fff"/>
        <path id="Path_1648" data-name="Path 1648" d="M350.529,0H423.1L220.934,341.726H139.723Z" transform="translate(143.656)" fill="#fff"/>
        <path id="Path_1649" data-name="Path 1649" d="M350.529,0H423.1L220.934,341.726H139.723Z" transform="translate(285.346)" fill="#fff"/>
        <path id="Path_1650" data-name="Path 1650" d="M350.529,0H423.1L220.934,341.726H139.723Z" transform="translate(427.035)" fill="#fff"/>
        <path id="Path_1651" data-name="Path 1651" d="M350.529,0H423.1L220.934,341.726H139.723Z" transform="translate(710.414)" fill="#fff"/>
        <path id="Path_1652" data-name="Path 1652" d="M350.529,0H423.1L220.934,341.726H139.723Z" transform="translate(568.725)" fill="#fff"/>
        <path id="Path_1653" data-name="Path 1653" d="M350.529,0H423.1L220.934,341.726H139.723Z" transform="translate(852.103)" fill="#fff"/>
        <path id="Path_1654" data-name="Path 1654" d="M350.529,0H423.1L220.934,341.726H139.723Z" transform="translate(993.792)" fill="#fff"/>
      </g>
      <g id="Group_719" data-name="Group 719" transform="translate(1269.837)">
        <path id="Path_1646-2" data-name="Path 1646" d="M350.529,0H423.1L220.934,341.726H139.723Z" transform="translate(-139.723)" fill="#fff"/>
        <path id="Path_1647-2" data-name="Path 1647" d="M350.529,0H423.1L220.934,341.726H139.723Z" transform="translate(1.967)" fill="#fff"/>
        <path id="Path_1648-2" data-name="Path 1648" d="M350.529,0H423.1L220.934,341.726H139.723Z" transform="translate(143.656)" fill="#fff"/>
        <path id="Path_1649-2" data-name="Path 1649" d="M350.529,0H423.1L220.934,341.726H139.723Z" transform="translate(285.346)" fill="#fff"/>
        <path id="Path_1650-2" data-name="Path 1650" d="M350.529,0H423.1L220.934,341.726H139.723Z" transform="translate(427.035)" fill="#fff"/>
        <path id="Path_1651-2" data-name="Path 1651" d="M350.529,0H423.1L220.934,341.726H139.723Z" transform="translate(710.414)" fill="#fff"/>
        <path id="Path_1652-2" data-name="Path 1652" d="M350.529,0H423.1L220.934,341.726H139.723Z" transform="translate(568.725)" fill="#fff"/>
        <path id="Path_1653-2" data-name="Path 1653" d="M350.529,0H423.1L220.934,341.726H139.723Z" transform="translate(852.103)" fill="#fff"/>
        <path id="Path_1654-2" data-name="Path 1654" d="M350.529,0H423.1L220.934,341.726H139.723Z" transform="translate(993.792)" fill="#fff"/>
      </g>
    </g>
    <g id="Group_721" data-name="Group 721" transform="translate(2205.101 166.601) rotate(180)">
      <g id="Group_718-2" data-name="Group 718">
        <path id="Path_1646-3" data-name="Path 1646" d="M350.529,0H423.1L220.934,341.726H139.723Z" transform="translate(-139.723)" fill="#fff"/>
        <path id="Path_1647-3" data-name="Path 1647" d="M350.529,0H423.1L220.934,341.726H139.723Z" transform="translate(1.967)" fill="#fff"/>
        <path id="Path_1648-3" data-name="Path 1648" d="M350.529,0H423.1L220.934,341.726H139.723Z" transform="translate(143.656)" fill="#fff"/>
        <path id="Path_1649-3" data-name="Path 1649" d="M350.529,0H423.1L220.934,341.726H139.723Z" transform="translate(285.346)" fill="#fff"/>
        <path id="Path_1650-3" data-name="Path 1650" d="M350.529,0H423.1L220.934,341.726H139.723Z" transform="translate(427.035)" fill="#fff"/>
        <path id="Path_1651-3" data-name="Path 1651" d="M350.529,0H423.1L220.934,341.726H139.723Z" transform="translate(710.414)" fill="#fff"/>
        <path id="Path_1652-3" data-name="Path 1652" d="M350.529,0H423.1L220.934,341.726H139.723Z" transform="translate(568.725)" fill="#fff"/>
        <path id="Path_1653-3" data-name="Path 1653" d="M350.529,0H423.1L220.934,341.726H139.723Z" transform="translate(852.103)" fill="#fff"/>
        <path id="Path_1654-3" data-name="Path 1654" d="M350.529,0H423.1L220.934,341.726H139.723Z" transform="translate(993.792)" fill="#fff"/>
      </g>
      <g id="Group_719-2" data-name="Group 719" transform="translate(1269.837)">
        <path id="Path_1646-4" data-name="Path 1646" d="M350.529,0H423.1L220.934,341.726H139.723Z" transform="translate(-139.723)" fill="#fff"/>
        <path id="Path_1647-4" data-name="Path 1647" d="M350.529,0H423.1L220.934,341.726H139.723Z" transform="translate(1.967)" fill="#fff"/>
        <path id="Path_1648-4" data-name="Path 1648" d="M350.529,0H423.1L220.934,341.726H139.723Z" transform="translate(143.656)" fill="#fff"/>
        <path id="Path_1649-4" data-name="Path 1649" d="M350.529,0H423.1L220.934,341.726H139.723Z" transform="translate(285.346)" fill="#fff"/>
        <path id="Path_1650-4" data-name="Path 1650" d="M350.529,0H423.1L220.934,341.726H139.723Z" transform="translate(427.035)" fill="#fff"/>
        <path id="Path_1651-4" data-name="Path 1651" d="M350.529,0H423.1L220.934,341.726H139.723Z" transform="translate(710.414)" fill="#fff"/>
        <path id="Path_1652-4" data-name="Path 1652" d="M350.529,0H423.1L220.934,341.726H139.723Z" transform="translate(568.725)" fill="#fff"/>
        <path id="Path_1653-4" data-name="Path 1653" d="M350.529,0H423.1L220.934,341.726H139.723Z" transform="translate(852.103)" fill="#fff"/>
        <path id="Path_1654-4" data-name="Path 1654" d="M350.529,0H423.1L220.934,341.726H139.723Z" transform="translate(993.792)" fill="#fff"/>
      </g>
    </g>
  </g>
</svg>
