<svg xmlns="http://www.w3.org/2000/svg" xmlns:xlink="http://www.w3.org/1999/xlink" width="1920" height="1080" viewBox="0 0 1920 1080">
  <defs>
    <clipPath id="clip-Web_1920_26">
      <rect width="1920" height="1080"/>
    </clipPath>
  </defs>
  <g id="Web_1920_26" data-name="Web 1920 – 26" clip-path="url(#clip-Web_1920_26)">
    <rect width="1920" height="1080" fill="#54e344"/>
    <rect id="Rectangle_1301" data-name="Rectangle 1301" width="280.134" height="2117.59" transform="translate(1998.712 -161.675) rotate(90)" fill="#ffed00"/>
    <rect id="Rectangle_1302" data-name="Rectangle 1302" width="280.134" height="2401.997" transform="translate(2160.999 961.541) rotate(90)" fill="#ffed00"/>
    <g id="Group_770" data-name="Group 770" transform="translate(-62.103 967.073)">
      <g id="Group_718" data-name="Group 718">
        <g id="Path_1646" data-name="Path 1646">
          <path d="M 61.25710678100586 225.3530120849609 L 0.9659081697463989 225.3530120849609 L 159.9554138183594 0.5000060200691223 L 213.7310028076172 0.5000060200691223 L 61.25710678100586 225.3530120849609 Z" stroke="none"/>
          <path d="M 160.2142181396484 1 L 1.931793212890625 224.8530120849609 L 60.9920654296875 224.8530120849609 L 212.7878570556641 1 L 160.2142181396484 1 M 159.6965942382813 0 L 214.6741790771484 0 L 61.52217102050781 225.8530120849609 L 0 225.8530120849609 L 159.6965942382813 0 Z" stroke="none" fill="#000"/>
        </g>
        <g id="Path_1647" data-name="Path 1647" transform="translate(107.337)">
          <path d="M 61.25710678100586 225.3530120849609 L 0.9659081697463989 225.3530120849609 L 159.9554138183594 0.5000060200691223 L 213.7310028076172 0.5000060200691223 L 61.25710678100586 225.3530120849609 Z" stroke="none"/>
          <path d="M 160.2142181396484 1 L 1.931793212890625 224.8530120849609 L 60.9920654296875 224.8530120849609 L 212.7878570556641 1 L 160.2142181396484 1 M 159.6965942382813 0 L 214.6741790771484 0 L 61.52217102050781 225.8530120849609 L 0 225.8530120849609 L 159.6965942382813 0 Z" stroke="none" fill="#000"/>
        </g>
        <g id="Path_1648" data-name="Path 1648" transform="translate(214.674)">
          <path d="M 61.25710678100586 225.3530120849609 L 0.9659081697463989 225.3530120849609 L 159.9554138183594 0.5000060200691223 L 213.7310028076172 0.5000060200691223 L 61.25710678100586 225.3530120849609 Z" stroke="none"/>
          <path d="M 160.2142181396484 1 L 1.931793212890625 224.8530120849609 L 60.9920654296875 224.8530120849609 L 212.7878570556641 1 L 160.2142181396484 1 M 159.6965942382813 0 L 214.6741790771484 0 L 61.52217102050781 225.8530120849609 L 0 225.8530120849609 L 159.6965942382813 0 Z" stroke="none" fill="#000"/>
        </g>
        <g id="Path_1649" data-name="Path 1649" transform="translate(322.011)">
          <path d="M 61.25710678100586 225.3530120849609 L 0.9659081697463989 225.3530120849609 L 159.9554138183594 0.5000060200691223 L 213.7310028076172 0.5000060200691223 L 61.25710678100586 225.3530120849609 Z" stroke="none"/>
          <path d="M 160.2142181396484 1 L 1.931793212890625 224.8530120849609 L 60.9920654296875 224.8530120849609 L 212.7878570556641 1 L 160.2142181396484 1 M 159.6965942382813 0 L 214.6741790771484 0 L 61.52217102050781 225.8530120849609 L 0 225.8530120849609 L 159.6965942382813 0 Z" stroke="none" fill="#000"/>
        </g>
        <g id="Path_1650" data-name="Path 1650" transform="translate(429.348)">
          <path d="M 61.25710678100586 225.3530120849609 L 0.9659081697463989 225.3530120849609 L 159.9554138183594 0.5000060200691223 L 213.7310028076172 0.5000060200691223 L 61.25710678100586 225.3530120849609 Z" stroke="none"/>
          <path d="M 160.2142181396484 1 L 1.931793212890625 224.8530120849609 L 60.9920654296875 224.8530120849609 L 212.7878570556641 1 L 160.2142181396484 1 M 159.6965942382813 0 L 214.6741790771484 0 L 61.52217102050781 225.8530120849609 L 0 225.8530120849609 L 159.6965942382813 0 Z" stroke="none" fill="#000"/>
        </g>
        <g id="Path_1651" data-name="Path 1651" transform="translate(644.022)">
          <path d="M 61.25710678100586 225.3530120849609 L 0.9659081697463989 225.3530120849609 L 159.9554138183594 0.5000060200691223 L 213.7310028076172 0.5000060200691223 L 61.25710678100586 225.3530120849609 Z" stroke="none"/>
          <path d="M 160.2142181396484 1 L 1.931793212890625 224.8530120849609 L 60.9920654296875 224.8530120849609 L 212.7878570556641 1 L 160.2142181396484 1 M 159.6965942382813 0 L 214.6741790771484 0 L 61.52217102050781 225.8530120849609 L 0 225.8530120849609 L 159.6965942382813 0 Z" stroke="none" fill="#000"/>
        </g>
        <g id="Path_1652" data-name="Path 1652" transform="translate(536.686)">
          <path d="M 61.25710678100586 225.3530120849609 L 0.9659081697463989 225.3530120849609 L 159.9554138183594 0.5000060200691223 L 213.7310028076172 0.5000060200691223 L 61.25710678100586 225.3530120849609 Z" stroke="none"/>
          <path d="M 160.2142181396484 1 L 1.931793212890625 224.8530120849609 L 60.9920654296875 224.8530120849609 L 212.7878570556641 1 L 160.2142181396484 1 M 159.6965942382813 0 L 214.6741790771484 0 L 61.52217102050781 225.8530120849609 L 0 225.8530120849609 L 159.6965942382813 0 Z" stroke="none" fill="#000"/>
        </g>
        <g id="Path_1653" data-name="Path 1653" transform="translate(751.359)">
          <path d="M 61.25710678100586 225.3530120849609 L 0.9659081697463989 225.3530120849609 L 159.9554138183594 0.5000060200691223 L 213.7310028076172 0.5000060200691223 L 61.25710678100586 225.3530120849609 Z" stroke="none"/>
          <path d="M 160.2142181396484 1 L 1.931793212890625 224.8530120849609 L 60.9920654296875 224.8530120849609 L 212.7878570556641 1 L 160.2142181396484 1 M 159.6965942382813 0 L 214.6741790771484 0 L 61.52217102050781 225.8530120849609 L 0 225.8530120849609 L 159.6965942382813 0 Z" stroke="none" fill="#000"/>
        </g>
        <g id="Path_1654" data-name="Path 1654" transform="translate(858.697)">
          <path d="M 61.25710678100586 225.3530120849609 L 0.9659081697463989 225.3530120849609 L 159.9554138183594 0.5000060200691223 L 213.7310028076172 0.5000060200691223 L 61.25710678100586 225.3530120849609 Z" stroke="none"/>
          <path d="M 160.2142181396484 1 L 1.931793212890625 224.8530120849609 L 60.9920654296875 224.8530120849609 L 212.7878570556641 1 L 160.2142181396484 1 M 159.6965942382813 0 L 214.6741790771484 0 L 61.52217102050781 225.8530120849609 L 0 225.8530120849609 L 159.6965942382813 0 Z" stroke="none" fill="#000"/>
        </g>
      </g>
      <g id="Group_719" data-name="Group 719" transform="translate(961.967)">
        <g id="Path_1646-2" data-name="Path 1646">
          <path d="M 61.25710678100586 225.3530120849609 L 0.9659081697463989 225.3530120849609 L 159.9554138183594 0.5000060200691223 L 213.7310028076172 0.5000060200691223 L 61.25710678100586 225.3530120849609 Z" stroke="none"/>
          <path d="M 160.2142181396484 1 L 1.931793212890625 224.8530120849609 L 60.9920654296875 224.8530120849609 L 212.7878570556641 1 L 160.2142181396484 1 M 159.6965942382813 0 L 214.6741790771484 0 L 61.52217102050781 225.8530120849609 L 0 225.8530120849609 L 159.6965942382813 0 Z" stroke="none" fill="#000"/>
        </g>
        <g id="Path_1647-2" data-name="Path 1647" transform="translate(107.337)">
          <path d="M 61.25710678100586 225.3530120849609 L 0.9659081697463989 225.3530120849609 L 159.9554138183594 0.5000060200691223 L 213.7310028076172 0.5000060200691223 L 61.25710678100586 225.3530120849609 Z" stroke="none"/>
          <path d="M 160.2142181396484 1 L 1.931793212890625 224.8530120849609 L 60.9920654296875 224.8530120849609 L 212.7878570556641 1 L 160.2142181396484 1 M 159.6965942382813 0 L 214.6741790771484 0 L 61.52217102050781 225.8530120849609 L 0 225.8530120849609 L 159.6965942382813 0 Z" stroke="none" fill="#000"/>
        </g>
        <g id="Path_1648-2" data-name="Path 1648" transform="translate(214.674)">
          <path d="M 61.25710678100586 225.3530120849609 L 0.9659081697463989 225.3530120849609 L 159.9554138183594 0.5000060200691223 L 213.7310028076172 0.5000060200691223 L 61.25710678100586 225.3530120849609 Z" stroke="none"/>
          <path d="M 160.2142181396484 1 L 1.931793212890625 224.8530120849609 L 60.9920654296875 224.8530120849609 L 212.7878570556641 1 L 160.2142181396484 1 M 159.6965942382813 0 L 214.6741790771484 0 L 61.52217102050781 225.8530120849609 L 0 225.8530120849609 L 159.6965942382813 0 Z" stroke="none" fill="#000"/>
        </g>
        <g id="Path_1649-2" data-name="Path 1649" transform="translate(322.011)">
          <path d="M 61.25710678100586 225.3530120849609 L 0.9659081697463989 225.3530120849609 L 159.9554138183594 0.5000060200691223 L 213.7310028076172 0.5000060200691223 L 61.25710678100586 225.3530120849609 Z" stroke="none"/>
          <path d="M 160.2142181396484 1 L 1.931793212890625 224.8530120849609 L 60.9920654296875 224.8530120849609 L 212.7878570556641 1 L 160.2142181396484 1 M 159.6965942382813 0 L 214.6741790771484 0 L 61.52217102050781 225.8530120849609 L 0 225.8530120849609 L 159.6965942382813 0 Z" stroke="none" fill="#000"/>
        </g>
        <g id="Path_1650-2" data-name="Path 1650" transform="translate(429.348)">
          <path d="M 61.25710678100586 225.3530120849609 L 0.9659081697463989 225.3530120849609 L 159.9554138183594 0.5000060200691223 L 213.7310028076172 0.5000060200691223 L 61.25710678100586 225.3530120849609 Z" stroke="none"/>
          <path d="M 160.2142181396484 1 L 1.931793212890625 224.8530120849609 L 60.9920654296875 224.8530120849609 L 212.7878570556641 1 L 160.2142181396484 1 M 159.6965942382813 0 L 214.6741790771484 0 L 61.52217102050781 225.8530120849609 L 0 225.8530120849609 L 159.6965942382813 0 Z" stroke="none" fill="#000"/>
        </g>
        <g id="Path_1651-2" data-name="Path 1651" transform="translate(644.022)">
          <path d="M 61.25710678100586 225.3530120849609 L 0.9659081697463989 225.3530120849609 L 159.9554138183594 0.5000060200691223 L 213.7310028076172 0.5000060200691223 L 61.25710678100586 225.3530120849609 Z" stroke="none"/>
          <path d="M 160.2142181396484 1 L 1.931793212890625 224.8530120849609 L 60.9920654296875 224.8530120849609 L 212.7878570556641 1 L 160.2142181396484 1 M 159.6965942382813 0 L 214.6741790771484 0 L 61.52217102050781 225.8530120849609 L 0 225.8530120849609 L 159.6965942382813 0 Z" stroke="none" fill="#000"/>
        </g>
        <g id="Path_1652-2" data-name="Path 1652" transform="translate(536.686)">
          <path d="M 61.25710678100586 225.3530120849609 L 0.9659081697463989 225.3530120849609 L 159.9554138183594 0.5000060200691223 L 213.7310028076172 0.5000060200691223 L 61.25710678100586 225.3530120849609 Z" stroke="none"/>
          <path d="M 160.2142181396484 1 L 1.931793212890625 224.8530120849609 L 60.9920654296875 224.8530120849609 L 212.7878570556641 1 L 160.2142181396484 1 M 159.6965942382813 0 L 214.6741790771484 0 L 61.52217102050781 225.8530120849609 L 0 225.8530120849609 L 159.6965942382813 0 Z" stroke="none" fill="#000"/>
        </g>
        <g id="Path_1653-2" data-name="Path 1653" transform="translate(751.359)">
          <path d="M 61.25710678100586 225.3530120849609 L 0.9659081697463989 225.3530120849609 L 159.9554138183594 0.5000060200691223 L 213.7310028076172 0.5000060200691223 L 61.25710678100586 225.3530120849609 Z" stroke="none"/>
          <path d="M 160.2142181396484 1 L 1.931793212890625 224.8530120849609 L 60.9920654296875 224.8530120849609 L 212.7878570556641 1 L 160.2142181396484 1 M 159.6965942382813 0 L 214.6741790771484 0 L 61.52217102050781 225.8530120849609 L 0 225.8530120849609 L 159.6965942382813 0 Z" stroke="none" fill="#000"/>
        </g>
      </g>
    </g>
    <g id="Group_720" data-name="Group 720" transform="translate(-57.668 -119.534)">
      <g id="Group_718-2" data-name="Group 718">
        <g id="Path_1647-3" data-name="Path 1647" transform="translate(107.337)">
          <path d="M 61.25710678100586 225.3530120849609 L 0.9659081697463989 225.3530120849609 L 159.9554138183594 0.5000060200691223 L 213.7310028076172 0.5000060200691223 L 61.25710678100586 225.3530120849609 Z" stroke="none"/>
          <path d="M 160.2142181396484 1 L 1.931793212890625 224.8530120849609 L 60.9920654296875 224.8530120849609 L 212.7878570556641 1 L 160.2142181396484 1 M 159.6965942382813 0 L 214.6741790771484 0 L 61.52217102050781 225.8530120849609 L 0 225.8530120849609 L 159.6965942382813 0 Z" stroke="none" fill="#000"/>
        </g>
        <g id="Path_1648-3" data-name="Path 1648" transform="translate(214.674)">
          <path d="M 61.25710678100586 225.3530120849609 L 0.9659081697463989 225.3530120849609 L 159.9554138183594 0.5000060200691223 L 213.7310028076172 0.5000060200691223 L 61.25710678100586 225.3530120849609 Z" stroke="none"/>
          <path d="M 160.2142181396484 1 L 1.931793212890625 224.8530120849609 L 60.9920654296875 224.8530120849609 L 212.7878570556641 1 L 160.2142181396484 1 M 159.6965942382813 0 L 214.6741790771484 0 L 61.52217102050781 225.8530120849609 L 0 225.8530120849609 L 159.6965942382813 0 Z" stroke="none" fill="#000"/>
        </g>
        <g id="Path_1649-3" data-name="Path 1649" transform="translate(322.011)">
          <path d="M 61.25710678100586 225.3530120849609 L 0.9659081697463989 225.3530120849609 L 159.9554138183594 0.5000060200691223 L 213.7310028076172 0.5000060200691223 L 61.25710678100586 225.3530120849609 Z" stroke="none"/>
          <path d="M 160.2142181396484 1 L 1.931793212890625 224.8530120849609 L 60.9920654296875 224.8530120849609 L 212.7878570556641 1 L 160.2142181396484 1 M 159.6965942382813 0 L 214.6741790771484 0 L 61.52217102050781 225.8530120849609 L 0 225.8530120849609 L 159.6965942382813 0 Z" stroke="none" fill="#000"/>
        </g>
        <g id="Path_1650-3" data-name="Path 1650" transform="translate(429.348)">
          <path d="M 61.25710678100586 225.3530120849609 L 0.9659081697463989 225.3530120849609 L 159.9554138183594 0.5000060200691223 L 213.7310028076172 0.5000060200691223 L 61.25710678100586 225.3530120849609 Z" stroke="none"/>
          <path d="M 160.2142181396484 1 L 1.931793212890625 224.8530120849609 L 60.9920654296875 224.8530120849609 L 212.7878570556641 1 L 160.2142181396484 1 M 159.6965942382813 0 L 214.6741790771484 0 L 61.52217102050781 225.8530120849609 L 0 225.8530120849609 L 159.6965942382813 0 Z" stroke="none" fill="#000"/>
        </g>
        <g id="Path_1651-3" data-name="Path 1651" transform="translate(644.022)">
          <path d="M 61.25710678100586 225.3530120849609 L 0.9659081697463989 225.3530120849609 L 159.9554138183594 0.5000060200691223 L 213.7310028076172 0.5000060200691223 L 61.25710678100586 225.3530120849609 Z" stroke="none"/>
          <path d="M 160.2142181396484 1 L 1.931793212890625 224.8530120849609 L 60.9920654296875 224.8530120849609 L 212.7878570556641 1 L 160.2142181396484 1 M 159.6965942382813 0 L 214.6741790771484 0 L 61.52217102050781 225.8530120849609 L 0 225.8530120849609 L 159.6965942382813 0 Z" stroke="none" fill="#000"/>
        </g>
        <g id="Path_1652-3" data-name="Path 1652" transform="translate(536.686)">
          <path d="M 61.25710678100586 225.3530120849609 L 0.9659081697463989 225.3530120849609 L 159.9554138183594 0.5000060200691223 L 213.7310028076172 0.5000060200691223 L 61.25710678100586 225.3530120849609 Z" stroke="none"/>
          <path d="M 160.2142181396484 1 L 1.931793212890625 224.8530120849609 L 60.9920654296875 224.8530120849609 L 212.7878570556641 1 L 160.2142181396484 1 M 159.6965942382813 0 L 214.6741790771484 0 L 61.52217102050781 225.8530120849609 L 0 225.8530120849609 L 159.6965942382813 0 Z" stroke="none" fill="#000"/>
        </g>
        <g id="Path_1653-3" data-name="Path 1653" transform="translate(751.359)">
          <path d="M 61.25710678100586 225.3530120849609 L 0.9659081697463989 225.3530120849609 L 159.9554138183594 0.5000060200691223 L 213.7310028076172 0.5000060200691223 L 61.25710678100586 225.3530120849609 Z" stroke="none"/>
          <path d="M 160.2142181396484 1 L 1.931793212890625 224.8530120849609 L 60.9920654296875 224.8530120849609 L 212.7878570556641 1 L 160.2142181396484 1 M 159.6965942382813 0 L 214.6741790771484 0 L 61.52217102050781 225.8530120849609 L 0 225.8530120849609 L 159.6965942382813 0 Z" stroke="none" fill="#000"/>
        </g>
        <g id="Path_1654-2" data-name="Path 1654" transform="translate(858.697)">
          <path d="M 61.25710678100586 225.3530120849609 L 0.9659081697463989 225.3530120849609 L 159.9554138183594 0.5000060200691223 L 213.7310028076172 0.5000060200691223 L 61.25710678100586 225.3530120849609 Z" stroke="none"/>
          <path d="M 160.2142181396484 1 L 1.931793212890625 224.8530120849609 L 60.9920654296875 224.8530120849609 L 212.7878570556641 1 L 160.2142181396484 1 M 159.6965942382813 0 L 214.6741790771484 0 L 61.52217102050781 225.8530120849609 L 0 225.8530120849609 L 159.6965942382813 0 Z" stroke="none" fill="#000"/>
        </g>
      </g>
      <g id="Group_719-2" data-name="Group 719" transform="translate(961.967)">
        <g id="Path_1646-3" data-name="Path 1646">
          <path d="M 61.25710678100586 225.3530120849609 L 0.9659081697463989 225.3530120849609 L 159.9554138183594 0.5000060200691223 L 213.7310028076172 0.5000060200691223 L 61.25710678100586 225.3530120849609 Z" stroke="none"/>
          <path d="M 160.2142181396484 1 L 1.931793212890625 224.8530120849609 L 60.9920654296875 224.8530120849609 L 212.7878570556641 1 L 160.2142181396484 1 M 159.6965942382813 0 L 214.6741790771484 0 L 61.52217102050781 225.8530120849609 L 0 225.8530120849609 L 159.6965942382813 0 Z" stroke="none" fill="#000"/>
        </g>
        <g id="Path_1647-4" data-name="Path 1647" transform="translate(107.337)">
          <path d="M 61.25710678100586 225.3530120849609 L 0.9659081697463989 225.3530120849609 L 159.9554138183594 0.5000060200691223 L 213.7310028076172 0.5000060200691223 L 61.25710678100586 225.3530120849609 Z" stroke="none"/>
          <path d="M 160.2142181396484 1 L 1.931793212890625 224.8530120849609 L 60.9920654296875 224.8530120849609 L 212.7878570556641 1 L 160.2142181396484 1 M 159.6965942382813 0 L 214.6741790771484 0 L 61.52217102050781 225.8530120849609 L 0 225.8530120849609 L 159.6965942382813 0 Z" stroke="none" fill="#000"/>
        </g>
        <g id="Path_1648-4" data-name="Path 1648" transform="translate(214.674)">
          <path d="M 61.25710678100586 225.3530120849609 L 0.9659081697463989 225.3530120849609 L 159.9554138183594 0.5000060200691223 L 213.7310028076172 0.5000060200691223 L 61.25710678100586 225.3530120849609 Z" stroke="none"/>
          <path d="M 160.2142181396484 1 L 1.931793212890625 224.8530120849609 L 60.9920654296875 224.8530120849609 L 212.7878570556641 1 L 160.2142181396484 1 M 159.6965942382813 0 L 214.6741790771484 0 L 61.52217102050781 225.8530120849609 L 0 225.8530120849609 L 159.6965942382813 0 Z" stroke="none" fill="#000"/>
        </g>
        <g id="Path_1649-4" data-name="Path 1649" transform="translate(322.011)">
          <path d="M 61.25710678100586 225.3530120849609 L 0.9659081697463989 225.3530120849609 L 159.9554138183594 0.5000060200691223 L 213.7310028076172 0.5000060200691223 L 61.25710678100586 225.3530120849609 Z" stroke="none"/>
          <path d="M 160.2142181396484 1 L 1.931793212890625 224.8530120849609 L 60.9920654296875 224.8530120849609 L 212.7878570556641 1 L 160.2142181396484 1 M 159.6965942382813 0 L 214.6741790771484 0 L 61.52217102050781 225.8530120849609 L 0 225.8530120849609 L 159.6965942382813 0 Z" stroke="none" fill="#000"/>
        </g>
        <g id="Path_1650-4" data-name="Path 1650" transform="translate(429.348)">
          <path d="M 61.25710678100586 225.3530120849609 L 0.9659081697463989 225.3530120849609 L 159.9554138183594 0.5000060200691223 L 213.7310028076172 0.5000060200691223 L 61.25710678100586 225.3530120849609 Z" stroke="none"/>
          <path d="M 160.2142181396484 1 L 1.931793212890625 224.8530120849609 L 60.9920654296875 224.8530120849609 L 212.7878570556641 1 L 160.2142181396484 1 M 159.6965942382813 0 L 214.6741790771484 0 L 61.52217102050781 225.8530120849609 L 0 225.8530120849609 L 159.6965942382813 0 Z" stroke="none" fill="#000"/>
        </g>
        <g id="Path_1651-4" data-name="Path 1651" transform="translate(644.022)">
          <path d="M 61.25710678100586 225.3530120849609 L 0.9659081697463989 225.3530120849609 L 159.9554138183594 0.5000060200691223 L 213.7310028076172 0.5000060200691223 L 61.25710678100586 225.3530120849609 Z" stroke="none"/>
          <path d="M 160.2142181396484 1 L 1.931793212890625 224.8530120849609 L 60.9920654296875 224.8530120849609 L 212.7878570556641 1 L 160.2142181396484 1 M 159.6965942382813 0 L 214.6741790771484 0 L 61.52217102050781 225.8530120849609 L 0 225.8530120849609 L 159.6965942382813 0 Z" stroke="none" fill="#000"/>
        </g>
        <g id="Path_1652-4" data-name="Path 1652" transform="translate(536.686)">
          <path d="M 61.25710678100586 225.3530120849609 L 0.9659081697463989 225.3530120849609 L 159.9554138183594 0.5000060200691223 L 213.7310028076172 0.5000060200691223 L 61.25710678100586 225.3530120849609 Z" stroke="none"/>
          <path d="M 160.2142181396484 1 L 1.931793212890625 224.8530120849609 L 60.9920654296875 224.8530120849609 L 212.7878570556641 1 L 160.2142181396484 1 M 159.6965942382813 0 L 214.6741790771484 0 L 61.52217102050781 225.8530120849609 L 0 225.8530120849609 L 159.6965942382813 0 Z" stroke="none" fill="#000"/>
        </g>
        <g id="Path_1653-4" data-name="Path 1653" transform="translate(751.359)">
          <path d="M 61.25710678100586 225.3530120849609 L 0.9659081697463989 225.3530120849609 L 159.9554138183594 0.5000060200691223 L 213.7310028076172 0.5000060200691223 L 61.25710678100586 225.3530120849609 Z" stroke="none"/>
          <path d="M 160.2142181396484 1 L 1.931793212890625 224.8530120849609 L 60.9920654296875 224.8530120849609 L 212.7878570556641 1 L 160.2142181396484 1 M 159.6965942382813 0 L 214.6741790771484 0 L 61.52217102050781 225.8530120849609 L 0 225.8530120849609 L 159.6965942382813 0 Z" stroke="none" fill="#000"/>
        </g>
        <g id="Path_1654-3" data-name="Path 1654" transform="translate(858.697)">
          <path d="M 61.25710678100586 225.3530120849609 L 0.9659081697463989 225.3530120849609 L 159.9554138183594 0.5000060200691223 L 213.7310028076172 0.5000060200691223 L 61.25710678100586 225.3530120849609 Z" stroke="none"/>
          <path d="M 160.2142181396484 1 L 1.931793212890625 224.8530120849609 L 60.9920654296875 224.8530120849609 L 212.7878570556641 1 L 160.2142181396484 1 M 159.6965942382813 0 L 214.6741790771484 0 L 61.52217102050781 225.8530120849609 L 0 225.8530120849609 L 159.6965942382813 0 Z" stroke="none" fill="#000"/>
        </g>
      </g>
    </g>
  </g>
</svg>
